<svg xmlns="http://www.w3.org/2000/svg" viewBox="0 0 548.63 369.89">
  <defs>
    <style>
      .a {
        fill: #e8582d;
      }
    </style>
  </defs>
  <title>apachecamel-alone</title>
  <path class="a" d="M508.06,355.85c-14.36,0-37.14,2.21-49.18,3.38s-37.63.7-38.85,0-.76-2.62-1-4.66c-1.26-11.35,2-23.87,3.9-35.12,2.94-17.38,13.89-44.58,7.09-61.36-4-9.87-12.88-17-14.52-28-1.69-11.27,1.14-24.41,2.33-35.72,1.11-10.56,2.8-21.19,2.52-31.84-.22-8.43-3.34-17.2-4.81-27.2s-15.11-22.94-18.59-26-14-18.81-21.55-28.18c-6.76-8.43-16.23-11.72-24.85-17.65-10-6.87-16.66-16-24.44-25C312.54,22.77,289.9,5.8,268.27,16.7c-17.59,8.86-26.17,29.69-44,39.49-16.56,9.1-36.89,12.92-51.16,25.69-13.06,11.69-20.61,44.72-39.86,46.37-23.56,2-21.64-25.05-21.44-39.5.31-22.68-.75-43.7-9-64.53-1.54-3.87-2.44-12-4.35-17.62-.79-2.32-1.74-4.21-3-5.19-4.14-3.25-22.87,0-28.2,1.29-10.87,2.65-20.15,8-31.53,9.69-8.92,1.29-16.78.3-24.18,6.1C-1.61,28.78-7.4,54.38,15.58,56.38c11.75,1,18.46-7.34,30.88-1.1,5.38,2.71,9,5.84,11,11.56,4.06,11.66,1.14,29.47,1.39,41.83.44,21.54,2.51,38.83,17.84,55.24a102.42,102.42,0,0,0,44.14,27.82c14.47,4.56,46.49.71,53.8,15.91,9.1,18.93,1.75,45.2,4.88,64.88,3.23,20.27,8.45,51.56-3.81,70.48C166.5,357.2,149,357.69,137.5,359.1s-15.75.85-23.73,1.84c-23.84,2.94-54.1,2-54.1,2s-43.13-4.48-46.54,0,24.78,7,40.29,7,42-2.48,49.18-3.38a138.14,138.14,0,0,1,30.34-.2c14.3,1.45,45.7-.37,64.53-.43q39-.12,77.92-.26c24.54-.07,49.07.31,73.6.39,10.87,0,21.75,0,32.62,0,7.54,0,21.87,1.21,30.2,1s23.22-.58,35.9-2.14c23.84-2.94,33.85-2.58,54.1-2s43.13,4.48,46.54,0S522.42,355.85,508.06,355.85Zm-298,1.9C186.91,365,192,342.67,194,328.4c2.64-18.54,4.39-37.14,7.83-55.28,2.34-12.3-1.38-32.49,7-43.13,10.67,9.5,12.58,27.16,16,39.93,4.76,17.62,7,32,8.46,50.4C233.36,339.08,230.15,351.43,210.07,357.75Zm80,2.89c-9,.54-20.58,3.15-29.42.26-11.1-3.64-10.18-11.7-11.61-23.06-3.13-24.75-.34-50.22-4.11-74.84-1.78-11.65-5.87-23.14-9.25-34.39-3.51-11.7-6.58-17.31,6.05-21.92,21.25-7.76,44.52-5.13,65.8-15.07C311,190,328.69,177.16,332.08,179c2.49,1.32,6.17,21.87,7.53,25.48a289.82,289.82,0,0,1,16.62,71.15C356.11,315.76,333.1,358.08,290.1,360.64Zm120.2-52.35c-2.71,13.35-4.64,26.72-12.94,38a35.81,35.81,0,0,1-31.56,14.21c-13.83-1.29-18.51-1.06-13.39-15.78a287.27,287.27,0,0,1,17-39.9C375.71,292.88,387,283,385.49,269c-1.62-14.74-11.45-29.88-7.08-45.21,10.66,6.5,19.7,29.74,24.27,41C408.51,279.12,413.42,292.92,410.3,308.28Z"/>
</svg>
