<svg xmlns="http://www.w3.org/2000/svg" viewBox="0 0 450 450"><defs><style>.a{fill:#ba6500;}</style></defs><title>5cam</title><polygon class="a" points="87.67 352.18 73.4 352.18 50.51 262.93 64.5 255.36 82.33 203.86 96.17 258.24 86.69 266.52 73.4 271.97 87.67 352.18"/><polygon class="a" points="277.3 352.29 262.04 352.29 259.64 314.47 265.06 242.5 270.09 240.89 280.79 278.84 273.05 314.47 277.3 352.29"/><path class="a" d="M416.25,116.56l-49.7-4.36-7.63-10.14-4.25,14.17-27.9,53-23.62.88-32.94-25.95L246.45,157,158.73,97.71,78.08,178.47,59,230.45,82.77,196l18.54,68.7-12,8.56,29.86,78.9h15.26L119,288.7l17.86-5.81-11.51-88.73,4.21,26L187,266.59s82.59-26.81,82.81-26.92l-14.76-54.34,28,93.83.65,25.17,8.94,47.84h11.77L300,304.34l4-24.19-5.67-62-.33-17,3.62,28.2L336.33,218,370,147.3l59,.1V128.55Zm-22.18,7.49-1.91-4.22,13.35,1.36Z"/></svg>