<svg xmlns="http://www.w3.org/2000/svg" viewBox="0 0 425.46 425.46"><defs><style>.a{fill:#1e1e1e;}.b{fill:#fff;}</style></defs><title>logo</title><rect class="a" width="425.46" height="425.46"/><polygon class="b" points="58.51 228.85 47.86 228.85 30.79 162.27 41.23 156.63 54.53 118.21 64.85 158.77 57.78 164.95 47.86 169.01 58.51 228.85"/><polygon class="b" points="199.96 228.93 188.58 228.93 186.79 200.72 190.84 147.03 194.59 145.83 202.57 174.14 196.79 200.72 199.96 228.93"/><path class="b" d="M303.61,53.09l-37.07-3.25-5.69-7.56-3.17,10.57L236.87,92.35,219.25,93,194.68,73.66,177,83.24,111.52,39,51.36,99.26,37.13,138l17.72-25.69L68.68,163.6,59.73,170,82,228.85H93.39L81.91,181.49l13.32-4.33L86.64,111l3.14,19.4L132.62,165s61.61-20,61.77-20.08l-11-40.53,20.89,70,.49,18.78,6.67,35.69h8.78l-3.33-35.69,3-18-4.23-46.26-.24-12.68,2.7,21L244,128.79,269.15,76l44,.07V62Zm-16.54,5.59-1.42-3.15,10,1Z"/><path class="b" d="M247.49,242.91a12.74,12.74,0,0,1,3.78-9.17,13,13,0,0,1,18.56,0,13.17,13.17,0,1,1-22.34,9.17Zm4.12,41.93h17.87V392.09H251.62Z"/><path class="b" d="M305,310.29q0-7.33-.46-13.75t-.46-11.69h17q0,4.36.23,8.71t.23,8.94H322a30.89,30.89,0,0,1,5.16-7.56A37.18,37.18,0,0,1,335,288.4a42.26,42.26,0,0,1,10.31-4.58,42.87,42.87,0,0,1,12.37-1.72,47.11,47.11,0,0,1,18.22,3.21,34.27,34.27,0,0,1,12.72,8.94,36.25,36.25,0,0,1,7.45,13.86,62.42,62.42,0,0,1,2.41,17.76v66.22H380.63V327.7q0-13.52-6-21.31t-18.56-7.79a34.87,34.87,0,0,0-15,3,26.6,26.6,0,0,0-10.31,8.48,37.94,37.94,0,0,0-6,13.06,67,67,0,0,0-1.95,16.73v52.25H305Z"/></svg>