<svg xmlns="http://www.w3.org/2000/svg" viewBox="0 0 427.79 427.79"><defs><style>.a{fill:#1e1e1e;}.b{fill:#fff;}</style></defs><title>logo</title><rect class="a" width="425.46" height="425.46"/><polygon class="b" points="67.47 336.21 53.64 336.21 31.47 249.75 45.02 242.43 62.3 192.53 75.7 245.21 66.52 253.24 53.64 258.51 67.47 336.21"/><polygon class="b" points="251.16 336.32 236.38 336.32 234.06 299.69 239.3 229.97 244.17 228.41 254.53 265.17 247.04 299.69 251.16 336.32"/><path class="b" d="M385.76,108l-48.14-4.22-7.39-9.82-4.12,13.72-27,51.31-22.88.85L244.3,134.68l-23,12.45-85-57.42L58.18,167.94,39.7,218.29l23-33.36,18,66.55-11.62,8.3L98,336.21h14.78l-14.91-61.5,17.3-5.62-11.15-86,4.08,25.19,55.63,45s80-26,80.21-26.08l-14.3-52.64,27.13,90.89.63,24.39L266,336.21h11.4l-4.33-46.34L277,266.43l-5.49-60.07-.32-16.47,3.51,27.31,33.62-10.93L341,137.75l57.11.09V119.59Zm-21.48,7.26-1.85-4.09,12.93,1.32Z"/></svg>