<svg xmlns="http://www.w3.org/2000/svg" viewBox="0 0 462 504.6"><defs><style>.a{fill:#0f0f0f;}.b{fill:#dd7300;}.c{fill:#fff;}</style></defs><title>logo</title><path class="a" d="M29.57,94.13V346.05c0,8.19,5.72,16,15.62,21.23l149.68,79.58c16.26,8.65,40,8.65,56.23,0L400.8,367.28c9.9-5.27,15.62-13,15.62-21.23V94.13c0-15.31-19.58-27.71-43.74-27.71H73.31C49.16,66.42,29.57,78.83,29.57,94.13Z"/><path class="b" d="M50.37,112V336.79c0,7.31,5.11,14.25,13.94,18.95l133.59,71c14.51,7.72,35.67,7.72,50.19,0l133.59-71c8.84-4.7,13.94-11.64,13.94-18.95V112c0-13.66-17.48-24.73-39-24.73H89.4C67.84,87.22,50.37,98.29,50.37,112Z"/><polygon class="c" points="115.14 336.76 104.06 336.76 86.3 267.49 97.16 261.62 111 221.65 121.74 263.85 114.38 270.28 104.06 274.51 115.14 336.76"/><polygon class="c" points="262.31 336.84 250.47 336.84 248.61 307.49 252.81 251.63 256.71 250.39 265.01 279.84 259.01 307.49 262.31 336.84"/><path class="c" d="M370.15,153.9l-38.57-3.38-5.92-7.87-3.3,11-21.65,41.11-18.33.68L256.81,175.3l-18.44,10-68.08-46L107.7,201.94,92.9,242.28l18.44-26.73,14.39,53.32-9.31,6.65,23.17,61.24h11.84l-11.94-49.27L153.34,283l-8.93-68.86,3.27,20.18,44.57,36s64.1-20.81,64.27-20.89l-11.46-42.17,21.74,72.82.51,19.54,6.94,37.13h9.13l-3.47-37.13L283,280.85l-4.4-48.13-.25-13.19,2.81,21.88,26.93-8.76,26.16-54.91,45.76.08V163.2Zm-17.21,5.81-1.48-3.28,10.36,1.06Z"/></svg>