<?xml version="1.0" encoding="UTF-8" standalone="no"?>
<!--

    Licensed to the Apache Software Foundation (ASF) under one or more
    contributor license agreements.  See the NOTICE file distributed with
    this work for additional information regarding copyright ownership.
    The ASF licenses this file to You under the Apache License, Version 2.0
    (the "License"); you may not use this file except in compliance with
    the License.  You may obtain a copy of the License at

         http://www.apache.org/licenses/LICENSE-2.0

    Unless required by applicable law or agreed to in writing, software
    distributed under the License is distributed on an "AS IS" BASIS,
    WITHOUT WARRANTIES OR CONDITIONS OF ANY KIND, either express or implied.
    See the License for the specific language governing permissions and
    limitations under the License.

-->
<!-- Created with Inkscape (http://www.inkscape.org/) -->

<svg
   xmlns:dc="http://purl.org/dc/elements/1.1/"
   xmlns:cc="http://creativecommons.org/ns#"
   xmlns:rdf="http://www.w3.org/1999/02/22-rdf-syntax-ns#"
   xmlns:svg="http://www.w3.org/2000/svg"
   xmlns="http://www.w3.org/2000/svg"
   xmlns:xlink="http://www.w3.org/1999/xlink"
   xmlns:sodipodi="http://sodipodi.sourceforge.net/DTD/sodipodi-0.dtd"
   xmlns:inkscape="http://www.inkscape.org/namespaces/inkscape"
   width="744.09448819"
   height="1052.3622047"
   id="svg5193"
   version="1.1"
   inkscape:version="0.91 r13725"
   sodipodi:docname="logo-template.svg">
  <defs
     id="defs5195">
    <linearGradient
       gradientTransform="matrix(0.4226,-0.9063,0.9063,0.4226,6189.0356,-1936.8361)"
       y2="-3860.573"
       x2="-3987.5886"
       y1="-4143.6401"
       x1="-4229.6655"
       gradientUnits="userSpaceOnUse"
       id="linearGradient4556">
      <stop
         id="stop4558"
         style="stop-color:#f6e423;stop-opacity:1"
         offset="0" />
      <stop
         id="stop4560"
         style="stop-color:#F79A23"
         offset="0.41190839" />
      <stop
         id="stop4562"
         style="stop-color:#E97826"
         offset="0.73270744" />
    </linearGradient>
    <linearGradient
       gradientTransform="matrix(0.4226,-0.9063,0.9063,0.4226,6189.0356,-1936.8361)"
       y2="-3860.573"
       x2="-3987.5886"
       y1="-4143.6401"
       x1="-4229.6655"
       gradientUnits="userSpaceOnUse"
       id="linearGradient4332">
      <stop
         id="stop4334"
         style="stop-color:#F69923"
         offset="0" />
      <stop
         id="stop4336"
         style="stop-color:#F79A23"
         offset="0.3123" />
      <stop
         id="stop4338"
         style="stop-color:#E97826"
         offset="0.37369284" />
    </linearGradient>
    <linearGradient
       id="linearGradient4324"
       gradientUnits="userSpaceOnUse"
       x1="-4229.6655"
       y1="-4143.6401"
       x2="-3987.5886"
       y2="-3860.573"
       gradientTransform="matrix(0.4226,-0.9063,0.9063,0.4226,6189.0356,-1936.8361)">
      <stop
         offset="0"
         style="stop-color:#F69923"
         id="stop4326" />
      <stop
         offset="0.45342046"
         style="stop-color:#F79A23"
         id="stop4328" />
      <stop
         offset="0.9569366"
         style="stop-color:#E97826"
         id="stop4330" />
    </linearGradient>
    <linearGradient
       gradientTransform="matrix(0.4226,-0.9063,0.9063,0.4226,6189.0356,-1936.8361)"
       y2="-3860.573"
       x2="-3987.5886"
       y1="-4143.6401"
       x1="-4229.6655"
       gradientUnits="userSpaceOnUse"
       id="linearGradient4283">
      <stop
         id="stop4285"
         style="stop-color:#F69923"
         offset="0" />
      <stop
         id="stop4287"
         style="stop-color:#F79A23"
         offset="0.62594879" />
      <stop
         id="stop4289"
         style="stop-color:#E97826"
         offset="0.9569366" />
    </linearGradient>
    <linearGradient
       id="linearGradient4214">
      <stop
         style="stop-color:#803300;stop-opacity:1"
         offset="0"
         id="stop4216" />
      <stop
         id="stop4218"
         offset="0.762034"
         style="stop-color:#aa4400;stop-opacity:1" />
      <stop
         id="stop4220"
         offset="1"
         style="stop-color:#d45500;stop-opacity:1" />
    </linearGradient>
    <linearGradient
       gradientTransform="matrix(0.4226,-0.9063,0.9063,0.4226,6189.0356,-1936.8361)"
       y2="-3860.573"
       x2="-3987.5886"
       y1="-4143.6401"
       x1="-4229.6655"
       gradientUnits="userSpaceOnUse"
       id="linearGradient3949">
      <stop
         id="stop3951"
         style="stop-color:#F69923"
         offset="0" />
      <stop
         id="stop3953"
         style="stop-color:#F79A23"
         offset="0.08047844" />
      <stop
         id="stop3955"
         style="stop-color:#E97826"
         offset="0.41874287" />
    </linearGradient>
    <linearGradient
       inkscape:collect="always"
       id="linearGradient5930">
      <stop
         style="stop-color:#d45500;stop-opacity:1"
         offset="0"
         id="stop5932" />
      <stop
         style="stop-color:#d45500;stop-opacity:0"
         offset="1"
         id="stop5934" />
    </linearGradient>
    <linearGradient
       inkscape:collect="always"
       id="linearGradient5922">
      <stop
         style="stop-color:#d45500;stop-opacity:1"
         offset="0"
         id="stop5924" />
      <stop
         style="stop-color:#d45500;stop-opacity:0"
         offset="1"
         id="stop5926" />
    </linearGradient>
    <linearGradient
       inkscape:collect="always"
       id="linearGradient5914">
      <stop
         style="stop-color:#d45500;stop-opacity:1"
         offset="0"
         id="stop5916" />
      <stop
         style="stop-color:#d45500;stop-opacity:0"
         offset="1"
         id="stop5918" />
    </linearGradient>
    <linearGradient
       id="linearGradient5337">
      <stop
         id="stop5345"
         offset="0"
         style="stop-color:#803300;stop-opacity:1" />
      <stop
         style="stop-color:#aa4400;stop-opacity:1"
         offset="0.5"
         id="stop5347" />
      <stop
         style="stop-color:#d45500;stop-opacity:1"
         offset="1"
         id="stop5341" />
    </linearGradient>
    <linearGradient
       inkscape:collect="always"
       xlink:href="#linearGradient5337"
       id="linearGradient5867"
       gradientUnits="userSpaceOnUse"
       gradientTransform="translate(37.767481,218.74544)"
       x1="136.5518"
       y1="307.43564"
       x2="532.00769"
       y2="307.43564" />
    <linearGradient
       inkscape:collect="always"
       xlink:href="#linearGradient5337"
       id="linearGradient5912"
       gradientUnits="userSpaceOnUse"
       gradientTransform="translate(31.577115,-72.201752)"
       x1="136.5518"
       y1="307.43564"
       x2="532.00769"
       y2="307.43564" />
    <linearGradient
       inkscape:collect="always"
       xlink:href="#linearGradient5914"
       id="linearGradient5920"
       x1="174.32097"
       y1="526.17188"
       x2="351.875"
       y2="526.17188"
       gradientUnits="userSpaceOnUse"
       gradientTransform="translate(2.4761463,-320.66095)" />
    <linearGradient
       inkscape:collect="always"
       xlink:href="#linearGradient5922"
       id="linearGradient5928"
       x1="248.9375"
       y1="530.28125"
       x2="446.5625"
       y2="530.28125"
       gradientUnits="userSpaceOnUse"
       gradientTransform="translate(2.4761463,-320.66095)" />
    <linearGradient
       inkscape:collect="always"
       xlink:href="#linearGradient5930"
       id="linearGradient5936"
       x1="406.84375"
       y1="527.84107"
       x2="569.77537"
       y2="527.84107"
       gradientUnits="userSpaceOnUse"
       gradientTransform="translate(2.4761463,-320.66095)" />
    <linearGradient
       inkscape:collect="always"
       xlink:href="#linearGradient5337"
       id="linearGradient5987"
       gradientUnits="userSpaceOnUse"
       gradientTransform="translate(37.767481,218.74544)"
       x1="136.5518"
       y1="307.43564"
       x2="532.00769"
       y2="307.43564" />
    <linearGradient
       inkscape:collect="always"
       xlink:href="#linearGradient5337"
       id="linearGradient6058"
       x1="262.625"
       y1="526.17188"
       x2="434.57684"
       y2="438.26868"
       gradientUnits="userSpaceOnUse" />
    <linearGradient
       inkscape:collect="always"
       xlink:href="#linearGradient5337"
       id="linearGradient6060"
       x1="408.13379"
       y1="493.1777"
       x2="569.77539"
       y2="427.55981"
       gradientUnits="userSpaceOnUse" />
    <linearGradient
       inkscape:collect="always"
       xlink:href="#linearGradient5337"
       id="linearGradient6062"
       x1="341.375"
       y1="527.15625"
       x2="525.94611"
       y2="449.15765"
       gradientUnits="userSpaceOnUse" />
    <linearGradient
       inkscape:collect="always"
       xlink:href="#linearGradient5337"
       id="linearGradient6064"
       x1="174.32097"
       y1="548.4375"
       x2="383.01959"
       y2="441.9632"
       gradientUnits="userSpaceOnUse" />
    <linearGradient
       y2="497.89682"
       x2="1491.8424"
       y1="497.89682"
       x1="1096.3865"
       gradientTransform="translate(322.36481,-607.49885)"
       gradientUnits="userSpaceOnUse"
       id="linearGradient6666"
       xlink:href="#SVGID_1_"
       inkscape:collect="always" />
    <linearGradient
       id="SVGID_1_"
       gradientUnits="userSpaceOnUse"
       x1="-4229.6655"
       y1="-4143.6401"
       x2="-3987.5886"
       y2="-3860.573"
       gradientTransform="matrix(0.4226,-0.9063,0.9063,0.4226,6189.0356,-1936.8361)">
      <stop
         offset="0"
         style="stop-color:#F69923"
         id="stop3286" />
      <stop
         offset="0.3123"
         style="stop-color:#F79A23"
         id="stop3288" />
      <stop
         offset="0.8383"
         style="stop-color:#E97826"
         id="stop3290" />
    </linearGradient>
    <linearGradient
       y2="497.89682"
       x2="1491.8424"
       y1="497.89682"
       x1="1096.3865"
       gradientTransform="translate(322.36481,-607.49885)"
       gradientUnits="userSpaceOnUse"
       id="linearGradient6666-3"
       xlink:href="#SVGID_2_"
       inkscape:collect="always" />
    <linearGradient
       id="SVGID_2_"
       gradientUnits="userSpaceOnUse"
       x1="-6021.2769"
       y1="-4174.8843"
       x2="-4294.1865"
       y2="-4174.8843"
       gradientTransform="matrix(0.4226,-0.9063,0.9063,0.4226,6189.0356,-1936.8361)">
      <stop
         offset="0.3233"
         style="stop-color:#9E2064"
         id="stop3311" />
      <stop
         offset="0.6302"
         style="stop-color:#C92037"
         id="stop3313" />
      <stop
         offset="0.7514"
         style="stop-color:#CD2335"
         id="stop3315" />
      <stop
         offset="1"
         style="stop-color:#E97826"
         id="stop3317" />
    </linearGradient>
    <linearGradient
       y2="497.89682"
       x2="1491.8424"
       y1="497.89682"
       x1="1096.3865"
       gradientTransform="translate(322.36481,-607.49885)"
       gradientUnits="userSpaceOnUse"
       id="linearGradient6666-4"
       xlink:href="#SVGID_3_"
       inkscape:collect="always" />
    <linearGradient
       id="SVGID_3_"
       gradientUnits="userSpaceOnUse"
       x1="-5812.7939"
       y1="-4001.6594"
       x2="-4783.6157"
       y2="-4001.6594"
       gradientTransform="matrix(0.4226,-0.9063,0.9063,0.4226,6189.0356,-1936.8361)">
      <stop
         offset="0"
         style="stop-color:#282662"
         id="stop3322" />
      <stop
         offset="9.548390e-02"
         style="stop-color:#662E8D"
         id="stop3324" />
      <stop
         offset="0.7882"
         style="stop-color:#9F2064"
         id="stop3326" />
      <stop
         offset="0.9487"
         style="stop-color:#CD2032"
         id="stop3328" />
    </linearGradient>
    <linearGradient
       y2="497.89682"
       x2="1491.8424"
       y1="497.89682"
       x1="1096.3865"
       gradientTransform="translate(322.36481,-607.49885)"
       gradientUnits="userSpaceOnUse"
       id="linearGradient6666-5"
       xlink:href="#SVGID_4_"
       inkscape:collect="always" />
    <linearGradient
       id="SVGID_4_"
       gradientUnits="userSpaceOnUse"
       x1="-5924.2744"
       y1="-4190.9775"
       x2="-4197.1841"
       y2="-4190.9775"
       gradientTransform="matrix(0.4226,-0.9063,0.9063,0.4226,6189.0356,-1936.8361)">
      <stop
         offset="0.3233"
         style="stop-color:#9E2064"
         id="stop3333" />
      <stop
         offset="0.6302"
         style="stop-color:#C92037"
         id="stop3335" />
      <stop
         offset="0.7514"
         style="stop-color:#CD2335"
         id="stop3337" />
      <stop
         offset="1"
         style="stop-color:#E97826"
         id="stop3339" />
    </linearGradient>
    <linearGradient
       y2="497.89682"
       x2="1491.8424"
       y1="497.89682"
       x1="1096.3865"
       gradientTransform="translate(322.36481,-607.49885)"
       gradientUnits="userSpaceOnUse"
       id="linearGradient6666-8"
       xlink:href="#SVGID_5_"
       inkscape:collect="always" />
    <linearGradient
       id="SVGID_5_"
       gradientUnits="userSpaceOnUse"
       x1="-5798.3159"
       y1="-4167.6108"
       x2="-4890.6782"
       y2="-4167.6108"
       gradientTransform="matrix(0.4226,-0.9063,0.9063,0.4226,6189.0356,-1936.8361)">
      <stop
         offset="0"
         style="stop-color:#282662"
         id="stop3344" />
      <stop
         offset="9.548390e-02"
         style="stop-color:#662E8D"
         id="stop3346" />
      <stop
         offset="0.7882"
         style="stop-color:#9F2064"
         id="stop3348" />
      <stop
         offset="0.9487"
         style="stop-color:#CD2032"
         id="stop3350" />
    </linearGradient>
    <linearGradient
       y2="497.89682"
       x2="1491.8424"
       y1="497.89682"
       x1="1096.3865"
       gradientTransform="translate(322.36481,-607.49885)"
       gradientUnits="userSpaceOnUse"
       id="linearGradient6666-2"
       xlink:href="#SVGID_6_"
       inkscape:collect="always" />
    <linearGradient
       id="SVGID_6_"
       gradientUnits="userSpaceOnUse"
       x1="-5924.2744"
       y1="-4012.23"
       x2="-4197.1841"
       y2="-4012.23"
       gradientTransform="matrix(0.4226,-0.9063,0.9063,0.4226,6189.0356,-1936.8361)">
      <stop
         offset="0.3233"
         style="stop-color:#9E2064"
         id="stop3355" />
      <stop
         offset="0.6302"
         style="stop-color:#C92037"
         id="stop3357" />
      <stop
         offset="0.7514"
         style="stop-color:#CD2335"
         id="stop3359" />
      <stop
         offset="1"
         style="stop-color:#E97826"
         id="stop3361" />
    </linearGradient>
    <linearGradient
       y2="497.89682"
       x2="1491.8424"
       y1="497.89682"
       x1="1096.3865"
       gradientTransform="translate(322.36481,-607.49885)"
       gradientUnits="userSpaceOnUse"
       id="linearGradient6666-58"
       xlink:href="#SVGID_7_"
       inkscape:collect="always" />
    <linearGradient
       id="SVGID_7_"
       gradientUnits="userSpaceOnUse"
       x1="-6031.4116"
       y1="-4021.106"
       x2="-4304.3213"
       y2="-4021.106"
       gradientTransform="matrix(0.4226,-0.9063,0.9063,0.4226,6189.0356,-1936.8361)">
      <stop
         offset="0.3233"
         style="stop-color:#9E2064"
         id="stop3366" />
      <stop
         offset="0.6302"
         style="stop-color:#C92037"
         id="stop3368" />
      <stop
         offset="0.7514"
         style="stop-color:#CD2335"
         id="stop3370" />
      <stop
         offset="1"
         style="stop-color:#E97826"
         id="stop3372" />
    </linearGradient>
    <linearGradient
       y2="497.89682"
       x2="1491.8424"
       y1="497.89682"
       x1="1096.3865"
       gradientTransform="translate(322.36481,-607.49885)"
       gradientUnits="userSpaceOnUse"
       id="linearGradient6666-23"
       xlink:href="#SVGID_8_"
       inkscape:collect="always" />
    <linearGradient
       id="SVGID_8_"
       gradientUnits="userSpaceOnUse"
       x1="-5924.2744"
       y1="-3959.0669"
       x2="-4197.1841"
       y2="-3959.0669"
       gradientTransform="matrix(0.4226,-0.9063,0.9063,0.4226,6189.0356,-1936.8361)">
      <stop
         offset="0.3233"
         style="stop-color:#9E2064"
         id="stop3381" />
      <stop
         offset="0.6302"
         style="stop-color:#C92037"
         id="stop3383" />
      <stop
         offset="0.7514"
         style="stop-color:#CD2335"
         id="stop3385" />
      <stop
         offset="1"
         style="stop-color:#E97826"
         id="stop3387" />
    </linearGradient>
    <linearGradient
       y2="497.89682"
       x2="1491.8424"
       y1="497.89682"
       x1="1096.3865"
       gradientTransform="translate(322.36481,-607.49885)"
       gradientUnits="userSpaceOnUse"
       id="linearGradient6666-83"
       xlink:href="#SVGID_9_"
       inkscape:collect="always" />
    <linearGradient
       id="SVGID_9_"
       gradientUnits="userSpaceOnUse"
       x1="-5924.2744"
       y1="-3965.1499"
       x2="-4197.1841"
       y2="-3965.1499"
       gradientTransform="matrix(0.4226,-0.9063,0.9063,0.4226,6189.0356,-1936.8361)">
      <stop
         offset="0.3233"
         style="stop-color:#9E2064"
         id="stop3396" />
      <stop
         offset="0.6302"
         style="stop-color:#C92037"
         id="stop3398" />
      <stop
         offset="0.7514"
         style="stop-color:#CD2335"
         id="stop3400" />
      <stop
         offset="1"
         style="stop-color:#E97826"
         id="stop3402" />
    </linearGradient>
    <linearGradient
       y2="497.89682"
       x2="1491.8424"
       y1="497.89682"
       x1="1096.3865"
       gradientTransform="translate(322.36481,-607.49885)"
       gradientUnits="userSpaceOnUse"
       id="linearGradient6666-31"
       xlink:href="#SVGID_10_"
       inkscape:collect="always" />
    <linearGradient
       id="SVGID_10_"
       gradientUnits="userSpaceOnUse"
       x1="-4954.02"
       y1="-3966.3701"
       x2="-4572.2764"
       y2="-3966.3701"
       gradientTransform="matrix(0.4226,-0.9063,0.9063,0.4226,6189.0356,-1936.8361)">
      <stop
         offset="0.3233"
         style="stop-color:#9E2064"
         id="stop3411" />
      <stop
         offset="0.6302"
         style="stop-color:#C92037"
         id="stop3413" />
      <stop
         offset="0.7514"
         style="stop-color:#CD2335"
         id="stop3415" />
      <stop
         offset="1"
         style="stop-color:#E97826"
         id="stop3417" />
    </linearGradient>
    <linearGradient
       id="SVGID_1_-0"
       gradientUnits="userSpaceOnUse"
       x1="-4229.6655"
       y1="-4143.6401"
       x2="-3987.5886"
       y2="-3860.573"
       gradientTransform="matrix(0.4226,-0.9063,0.9063,0.4226,6189.0356,-1936.8361)">
      <stop
         offset="0"
         style="stop-color:#F69923"
         id="stop3286-8" />
      <stop
         offset="0.10995827"
         style="stop-color:#F79A23"
         id="stop3288-2" />
      <stop
         offset="0.94502056"
         style="stop-color:#E97826"
         id="stop3290-2" />
    </linearGradient>
    <linearGradient
       inkscape:collect="always"
       xlink:href="#SVGID_1_"
       id="linearGradient4032"
       gradientUnits="userSpaceOnUse"
       gradientTransform="matrix(0.89763978,0,0,0.89763978,-1370.1882,349.55939)"
       x1="1096.3865"
       y1="497.89682"
       x2="1491.8424"
       y2="497.89682" />
    <linearGradient
       inkscape:collect="always"
       xlink:href="#SVGID_1_"
       id="linearGradient4176"
       gradientUnits="userSpaceOnUse"
       gradientTransform="matrix(0.89763978,0,0,0.89763978,-948.6856,-279.38177)"
       x1="1096.3865"
       y1="497.89682"
       x2="1491.8424"
       y2="497.89682" />
    <linearGradient
       inkscape:collect="always"
       xlink:href="#SVGID_1_-0-8"
       id="linearGradient4236-6"
       gradientUnits="userSpaceOnUse"
       x1="333.48315"
       y1="702.59973"
       x2="477.00238"
       y2="563.7301" />
    <linearGradient
       id="SVGID_1_-0-8"
       gradientUnits="userSpaceOnUse"
       x1="-4229.6655"
       y1="-4143.6401"
       x2="-3987.5886"
       y2="-3860.573"
       gradientTransform="matrix(0.4226,-0.9063,0.9063,0.4226,6189.0356,-1936.8361)">
      <stop
         offset="0"
         style="stop-color:#F69923"
         id="stop3286-8-3" />
      <stop
         offset="0.10995827"
         style="stop-color:#F79A23"
         id="stop3288-2-9" />
      <stop
         offset="0.94502056"
         style="stop-color:#E97826"
         id="stop3290-2-2" />
    </linearGradient>
    <linearGradient
       inkscape:collect="always"
       xlink:href="#linearGradient3949-6"
       id="linearGradient4238-8"
       gradientUnits="userSpaceOnUse"
       x1="333.48315"
       y1="702.59973"
       x2="477.00238"
       y2="563.7301" />
    <linearGradient
       gradientTransform="matrix(0.4226,-0.9063,0.9063,0.4226,6189.0356,-1936.8361)"
       y2="-3860.573"
       x2="-3987.5886"
       y1="-4143.6401"
       x1="-4229.6655"
       gradientUnits="userSpaceOnUse"
       id="linearGradient3949-6">
      <stop
         id="stop3951-2"
         style="stop-color:#F69923"
         offset="0" />
      <stop
         id="stop3953-7"
         style="stop-color:#F79A23"
         offset="0.08047844" />
      <stop
         id="stop3955-3"
         style="stop-color:#E97826"
         offset="0.41874287" />
    </linearGradient>
    <linearGradient
       inkscape:collect="always"
       xlink:href="#SVGID_1_-0"
       id="linearGradient4733"
       gradientUnits="userSpaceOnUse"
       x1="333.48315"
       y1="702.59973"
       x2="477.00238"
       y2="563.7301" />
    <linearGradient
       inkscape:collect="always"
       xlink:href="#linearGradient3949"
       id="linearGradient4735"
       gradientUnits="userSpaceOnUse"
       x1="333.48315"
       y1="702.59973"
       x2="477.00238"
       y2="563.7301" />
    <linearGradient
       inkscape:collect="always"
       xlink:href="#linearGradient4556"
       id="linearGradient4737"
       gradientUnits="userSpaceOnUse"
       x1="633.55072"
       y1="814.59906"
       x2="566.47131"
       y2="909.11664" />
    <linearGradient
       inkscape:collect="always"
       xlink:href="#SVGID_1_-0"
       id="linearGradient4739"
       gradientUnits="userSpaceOnUse"
       x1="333.48315"
       y1="702.59973"
       x2="477.00238"
       y2="563.7301" />
    <linearGradient
       inkscape:collect="always"
       xlink:href="#linearGradient3949"
       id="linearGradient4741"
       gradientUnits="userSpaceOnUse"
       x1="333.48315"
       y1="702.59973"
       x2="477.00238"
       y2="563.7301" />
    <linearGradient
       inkscape:collect="always"
       xlink:href="#SVGID_1_-0"
       id="linearGradient4753"
       gradientUnits="userSpaceOnUse"
       x1="333.48315"
       y1="702.59973"
       x2="477.00238"
       y2="563.7301" />
    <linearGradient
       inkscape:collect="always"
       xlink:href="#linearGradient3949"
       id="linearGradient4755"
       gradientUnits="userSpaceOnUse"
       x1="333.48315"
       y1="702.59973"
       x2="477.00238"
       y2="563.7301" />
    <linearGradient
       inkscape:collect="always"
       xlink:href="#SVGID_1_-0"
       id="linearGradient4797"
       gradientUnits="userSpaceOnUse"
       x1="333.48315"
       y1="702.59973"
       x2="477.00238"
       y2="563.7301" />
    <linearGradient
       inkscape:collect="always"
       xlink:href="#linearGradient3949"
       id="linearGradient4799"
       gradientUnits="userSpaceOnUse"
       x1="333.48315"
       y1="702.59973"
       x2="477.00238"
       y2="563.7301" />
    <linearGradient
       inkscape:collect="always"
       xlink:href="#SVGID_1_-0"
       id="linearGradient4815"
       gradientUnits="userSpaceOnUse"
       x1="333.48315"
       y1="702.59973"
       x2="477.00238"
       y2="563.7301" />
    <linearGradient
       inkscape:collect="always"
       xlink:href="#linearGradient3949"
       id="linearGradient4817"
       gradientUnits="userSpaceOnUse"
       x1="333.48315"
       y1="702.59973"
       x2="477.00238"
       y2="563.7301" />
    <linearGradient
       inkscape:collect="always"
       xlink:href="#linearGradient4556"
       id="linearGradient4819"
       gradientUnits="userSpaceOnUse"
       x1="633.55072"
       y1="814.59906"
       x2="566.47131"
       y2="909.11664" />
    <linearGradient
       inkscape:collect="always"
       xlink:href="#SVGID_1_-0"
       id="linearGradient4866"
       gradientUnits="userSpaceOnUse"
       x1="333.48315"
       y1="702.59973"
       x2="477.00238"
       y2="563.7301" />
    <linearGradient
       inkscape:collect="always"
       xlink:href="#linearGradient3949"
       id="linearGradient4868"
       gradientUnits="userSpaceOnUse"
       x1="333.48315"
       y1="702.59973"
       x2="477.00238"
       y2="563.7301" />
    <linearGradient
       inkscape:collect="always"
       xlink:href="#linearGradient4556"
       id="linearGradient4870"
       gradientUnits="userSpaceOnUse"
       x1="633.55072"
       y1="814.59906"
       x2="566.47131"
       y2="909.11664" />
    <linearGradient
       inkscape:collect="always"
       xlink:href="#SVGID_1_-0"
       id="linearGradient4884"
       gradientUnits="userSpaceOnUse"
       x1="333.48315"
       y1="702.59973"
       x2="477.00238"
       y2="563.7301" />
    <linearGradient
       inkscape:collect="always"
       xlink:href="#linearGradient3949"
       id="linearGradient4886"
       gradientUnits="userSpaceOnUse"
       x1="333.48315"
       y1="702.59973"
       x2="477.00238"
       y2="563.7301" />
    <linearGradient
       inkscape:collect="always"
       xlink:href="#linearGradient4556"
       id="linearGradient4888"
       gradientUnits="userSpaceOnUse"
       x1="633.55072"
       y1="814.59906"
       x2="566.47131"
       y2="909.11664" />
    <linearGradient
       inkscape:collect="always"
       xlink:href="#SVGID_1_-0"
       id="linearGradient4890"
       gradientUnits="userSpaceOnUse"
       x1="333.48315"
       y1="702.59973"
       x2="477.00238"
       y2="563.7301" />
    <linearGradient
       inkscape:collect="always"
       xlink:href="#linearGradient3949"
       id="linearGradient4892"
       gradientUnits="userSpaceOnUse"
       x1="333.48315"
       y1="702.59973"
       x2="477.00238"
       y2="563.7301" />
  </defs>
  <sodipodi:namedview
     id="base"
     pagecolor="#ffffff"
     bordercolor="#666666"
     borderopacity="1.0"
     inkscape:pageopacity="0.0"
     inkscape:pageshadow="2"
     inkscape:zoom="2.8755967"
     inkscape:cx="310.32092"
     inkscape:cy="313.16443"
     inkscape:document-units="px"
     inkscape:current-layer="layer1"
     showgrid="false"
     inkscape:window-width="1920"
     inkscape:window-height="981"
     inkscape:window-x="0"
     inkscape:window-y="28"
     inkscape:window-maximized="1" />
  <metadata
     id="metadata5198">
    <rdf:RDF>
      <cc:Work
         rdf:about="">
        <dc:format>image/svg+xml</dc:format>
        <dc:type
           rdf:resource="http://purl.org/dc/dcmitype/StillImage" />
        <dc:title />
      </cc:Work>
    </rdf:RDF>
  </metadata>
  <g
     inkscape:label="Layer 1"
     inkscape:groupmode="layer"
     id="layer1">
    <g
       id="g4178"
       inkscape:export-filename="/home/zregvart/workspaces/camel-salesforce/camel/docs/img/logo-large.png"
       inkscape:export-xdpi="106.96"
       inkscape:export-ydpi="106.96"
       transform="translate(0,-6.0234375e-5)">
      <path
         inkscape:connector-curvature="0"
         d="m 389.78309,69.71819 c 3.31903,-6.63099 -6.63095,-16.58104 -9.95006,-16.58104 0,0 -19.89646,0 -26.531,0 -1.853,0 -4.77805,-3.31549 -6.63455,-3.31549 -3.31552,0 -9.95007,0 -9.95007,0 0,0 -5.75064,-8.73247 -9.95006,-6.63455 -6.62746,3.31551 0,16.58104 0,16.58104 -19.89296,16.58104 -15.64389,44.86926 -38.85237,44.86926 -15.43088,0 -30.78726,-21.65367 -47.36828,-28.28822 -6.35062,-2.53809 -19.89654,-3.3155 -26.53468,-6.631 -11.1179,-5.55895 -13.25841,-29.84657 -39.7895,-29.84657 -26.53109,0 -39.66176,27.54986 -53.05859,36.47757 -9.95006,6.63455 -43.112108,16.58459 -43.112108,39.79662 0,0.97974 -9.282763,36.47758 -12.598195,43.11212 -0.461477,0.93005 -19.896545,19.89653 -16.581112,26.53462 0.181054,0.36208 13.261999,-3.3155 19.896544,-23.21557 4.114243,-12.33904 9.950068,-33.16563 9.950068,-33.16563 0,0 1.913319,7.63203 2.672992,13.26554 1.089824,8.01897 1.76072,15.59065 0.64253,19.89654 -0.912271,3.52138 -17.401016,29.4206 -26.53109,43.11566 -6.634545,9.9465 -10.33695,10.33697 -13.2655,13.26199 -3.319113,3.32261 0.486252,17.42944 0,23.21559 -0.926544,11.02562 -7.795373,32.11134 -6.631045,43.11211 0.312379,2.97473 0.677988,8.53724 3.315523,9.95004 h 23.219068 c 0,-9.95004 -11.167536,-9.07323 -13.26909,-13.26552 -3.315433,-6.63101 1.991503,-34.39031 3.319112,-39.79308 2.172468,-8.82832 6.630955,-6.63455 9.949978,-13.26555 2.839863,-5.68674 0.308878,-5.44181 3.315523,-9.95004 6.634545,-9.95004 25.86378,-23.21202 25.86378,-23.21202 l -3.31552,29.84301 9.95007,29.84659 9.949982,39.79661 h 26.53108 c 0,-13.26552 -12.18635,-10.28372 -16.58102,-13.26552 -3.6989,-2.50261 -5.89973,-12.17576 -6.63454,-16.58104 -1.09692,-6.59196 -2.94632,-19.85749 -3.31552,-26.53109 -0.27683,-4.96614 -0.5928,-14.95879 0,-19.89654 0.90518,-7.59298 3.51435,-22.86415 6.63104,-29.84658 2.43871,-5.45957 11.37345,-14.22752 13.2655,-19.89652 0.78454,-2.35706 -1.35248,-7.85923 0,-9.95005 1.41989,-2.20086 7.3339,-3.50719 9.95007,-3.3155 6.01688,0.44372 17.38324,5.06554 23.21197,6.631 8.94902,2.40675 36.47766,6.63099 36.47766,6.63099 0,0 -7.87697,30.80146 -13.26559,39.79662 -2.12983,3.55688 -8.78924,9.28623 -9.94648,13.2691 -1.16082,3.97574 0.962,12.54493 0,16.57748 -2.33224,9.74061 -13.66315,26.89671 -16.58102,36.47758 -1.46961,4.82415 -3.31911,19.89653 -3.31911,19.89653 h 23.21566 c 0,-9.95005 -5.11529,-9.87904 -6.63455,-13.26554 -3.97223,-8.85316 7.69942,-28.52961 13.262,-36.47757 2.01628,-2.88243 8.21771,-6.88659 9.94998,-9.95005 1.68262,-2.97117 2.18315,-10.04234 3.31911,-13.25843 4.43721,-12.61593 26.531,-46.43117 26.531,-46.43117 l 9.95366,-6.63455 c 0,0 9.94648,9.95003 16.58102,46.42762 0.90168,4.96259 1.35957,15.25342 3.31902,19.89653 1.15724,2.75464 5.31762,7.26641 6.63105,9.95005 5.75773,11.77463 16.58102,49.74665 16.58102,49.74665 h 26.5311 c 0,-13.26552 -12.23259,-10.21982 -16.58102,-13.26552 -7.94798,-5.56252 -13.2656,-36.47758 -13.2656,-36.47758 0,0 0.91586,-9.97135 0,-13.262 -0.62476,-2.26122 -2.57362,-4.40528 -3.31552,-6.63454 -3.31903,-9.95004 -6.63455,-29.84304 -6.63455,-43.10856 0,-6.84044 -3.31543,-26.53464 6.63455,-26.53464 9.95007,0 26.5311,0 36.47757,-6.63454 26.03057,-17.35489 32.47697,-50.37497 43.11221,-66.32416 6.62386,-9.95004 37.69153,-9.0768 39.7859,-13.26909 z"
         id="path6132-2"
         style="fill:url(#linearGradient4176)" />
      <g
         transform="translate(-15.537232,-170.85409)"
         style="font-size:35.90559006px;letter-spacing:0px;word-spacing:0px;fill:#6c5d53;font-family:Sans"
         id="text7084">
        <path
           d="m 391.43141,381.51178 c 12.73749,0 18.51382,7.10931 19.6987,15.25539 l 3.25843,0 -1.4811,-18.81004 -3.40655,0 c 0,1.77732 -0.74055,2.96221 -1.77732,2.96221 -2.8141,0 -8.88664,-4.44332 -16.44027,-4.44332 -23.25334,0 -44.87751,17.32897 -44.87751,46.06239 0,22.51278 15.10731,43.5445 42.65585,43.5445 18.21758,0 26.80801,-10.36775 30.51077,-19.25437 l -3.55465,-1.77733 c -2.66599,7.25741 -13.62618,15.99594 -23.99391,15.99594 -15.40349,0 -30.21456,-14.21864 -30.21456,-41.76718 0,-22.51278 12.73753,-37.76819 29.62212,-37.76819"
           style="-inkscape-font-specification:Judson Medium"
           id="path4020"
           inkscape:connector-curvature="0" />
        <path
           d="m 440.08573,410.39334 c 1.4811,-5.77631 7.40553,-7.10931 15.10728,-7.10931 11.55261,0 14.81105,8.1461 14.81105,23.99391 -14.95915,4.29521 -41.76718,6.96121 -41.76718,20.73548 0,14.2186 9.77531,18.06949 22.21659,18.06949 10.36773,0 17.47705,-3.25843 21.77225,-6.36875 2.36977,4.73953 6.22065,6.07253 10.51585,6.07253 10.21962,0 13.62617,-2.51788 13.62617,-7.99797 l -2.66599,0 c 0,2.07355 -2.51788,3.55465 -5.03576,3.55465 -2.51787,0 -5.33198,-2.36977 -5.33198,-9.18285 l 0,-29.32589 c 0,-13.77427 -7.25743,-24.88258 -26.6599,-24.88258 -15.55159,0 -24.43824,5.92444 -24.43824,16.29216 0,4.44332 2.51788,7.40553 6.36875,7.40553 3.11032,0 6.66498,-1.48111 6.66498,-5.18387 0,-4.59142 -2.81411,-6.07253 -5.18387,-6.07253 m 30.807,45.61805 c -4.59143,2.8141 -11.99697,5.03576 -17.92138,5.03576 -6.66497,0 -10.96018,-2.666 -10.96018,-12.73751 0,-11.99694 17.62516,-14.51483 27.99289,-17.77326 l 0,17.47704 c 0,3.11032 0.29622,5.77632 0.88867,7.99797"
           style="-inkscape-font-specification:Judson Medium"
           id="path4022"
           inkscape:connector-curvature="0" />
        <path
           d="m 499.54055,464.60181 31.99189,0 0,-3.11033 c -6.22064,0 -8.44231,-0.88866 -9.33097,-2.96221 l 0,-49.02459 c 3.40654,-3.11032 8.73853,-6.51687 15.55161,-6.51687 8.88663,0 12.44129,4.29522 12.44129,17.32894 l 0,38.21252 c -0.88866,2.07355 -3.11033,2.96221 -9.33097,2.96221 l 0,3.11033 31.99188,0 0,-3.11033 c -6.22063,0 -8.4423,-0.88866 -9.33096,-2.96221 l 0,-43.69261 c 0,-1.62922 -0.14811,-3.25844 -0.59244,-4.73954 3.40654,-3.25843 8.88664,-7.10931 16.14405,-7.10931 8.88662,0 12.44129,4.29522 12.44129,17.32894 l 0,38.21252 c -0.88867,2.07355 -3.11033,2.96221 -9.33097,2.96221 l 0,3.11033 31.99188,0 0,-3.11033 c -6.22064,0 -8.4423,-0.88866 -9.33096,-2.96221 l 0,-43.69261 c 0,-10.66395 -7.40555,-16.88461 -24.88258,-16.88461 -8.29418,0 -14.81106,4.73954 -18.51382,8.59042 -3.25843,-5.48009 -10.51586,-8.59042 -22.80903,-8.59042 -6.96119,0 -12.5894,3.40655 -16.44027,6.66498 l 0,-6.66498 c -6.66497,0 -16.88461,6.36876 -22.66092,6.36876 l 0,3.40654 c 2.22166,0 5.62821,0.44433 9.33097,0.74055 l 0,50.06137 c -0.88866,2.07355 -3.11033,2.96221 -9.33097,2.96221 l 0,3.11033"
           style="-inkscape-font-specification:Judson Medium"
           id="path4024"
           inkscape:connector-curvature="0" />
        <path
           d="m 636.00362,428.90716 47.54349,0 c 0,-16.29215 -8.88666,-30.95511 -31.10322,-30.95511 -19.8468,0 -30.51078,14.21863 -30.51078,30.807 0,29.9183 18.36573,37.32386 31.99188,37.32386 15.40349,0 23.6977,-4.44332 29.3259,-13.62617 l -3.55466,-1.77733 c -5.92441,7.40552 -12.14507,9.7753 -20.73548,9.7753 -11.70072,0 -22.66091,-14.95918 -22.95713,-31.54755 m 0.14811,-4.59143 c 1.33299,-13.62616 9.18286,-21.92036 15.69972,-21.92036 13.18182,0 16.14405,9.6272 17.18082,21.92036 l -32.88054,0"
           style="-inkscape-font-specification:Judson Medium"
           id="path4026"
           inkscape:connector-curvature="0" />
        <path
           d="m 692.16528,464.60181 31.99189,0 0,-3.11033 c -6.22064,0 -8.44231,-0.88866 -9.33097,-2.96221 l 0,-87.23712 c -6.66497,0 -16.88461,6.36875 -22.66092,6.36875 l 0,3.40655 c 2.22166,0 5.62821,0.44433 9.33097,0.74055 l 0,76.72127 c -0.88866,2.07355 -3.11033,2.96221 -9.33097,2.96221 l 0,3.11033"
           style="-inkscape-font-specification:Judson Medium"
           id="path4028"
           inkscape:connector-curvature="0" />
      </g>
      <g
         transform="matrix(0.45717348,0,0,0.45717348,203.79087,-106.06572)"
         id="g7137">
        <path
           style="fill:#d22128"
           inkscape:connector-curvature="0"
           d="m 280.2335,639.49652 27.23347,-65.09625 h 5.22662 l 27.23347,65.09625 h -6.87714 l -8.43962,-20.35633 h -29.24709 l -8.3406,20.35633 h -6.78911 z m 29.89629,-57.58091 -13.39116,32.18501 h 26.40821 l -13.01705,-32.18501 z"
           id="path3273" />
        <path
           style="fill:#d22128"
           inkscape:connector-curvature="0"
           d="m 346.95825,639.49652 v -65.09625 h 26.95838 c 11.19048,0 19.25599,10.36523 19.25599,20.44436 0,10.64031 -7.51534,20.63142 -18.70582,20.63142 h -21.18159 v 24.02047 h -6.32696 z m 6.32696,-29.70924 h 20.80748 c 7.70239,0 12.65393,-7.0642 12.65393,-14.94265 0,-8.16454 -6.05188,-14.76659 -13.20411,-14.76659 h -20.2573 v 29.70924 z"
           id="path3275" />
        <path
           style="fill:#d22128"
           inkscape:connector-curvature="0"
           d="m 389.60751,639.49652 27.23347,-65.09625 h 5.22663 l 27.23346,65.09625 h -6.87713 l -8.43963,-20.35633 h -29.24709 l -8.3406,20.35633 h -6.78911 z m 29.8853,-57.58091 -13.39117,32.18501 h 26.40821 l -13.01704,-32.18501 z"
           id="path3277" />
        <path
           style="fill:#d22128"
           inkscape:connector-curvature="0"
           d="m 480.09965,574.03716 c 11.5536,0 19.98222,5.86482 24.02047,14.21642 l -5.1386,3.11397 c -4.12628,-8.61568 -12.19179,-11.55359 -19.25598,-11.55359 -15.59185,0 -24.1085,13.94133 -24.1085,27.04641 0,14.39247 10.54128,27.40952 24.38358,27.40952 7.33928,0 15.95496,-3.66414 20.08125,-12.10376 l 5.31465,2.75085 c -4.21431,9.71602 -15.7679,15.12971 -25.75901,15.12971 -17.88056,0 -30.43547,-17.05531 -30.43547,-33.56044 0,-15.67988 11.26751,-32.44909 30.89761,-32.44909 z"
           id="path3279" />
        <path
           style="fill:#d22128"
           inkscape:connector-curvature="0"
           d="m 565.69527,574.40027 v 65.09625 h -6.41499 v -30.43547 h -38.6 v 30.43547 h -6.32698 v -65.09625 h 6.32698 v 28.97201 h 38.6 v -28.97201 h 6.41499 z"
           id="path3281" />
        <path
           style="fill:#d22128"
           inkscape:connector-curvature="0"
           d="m 624.13445,633.80775 v 5.68877 h -43.7386 v -65.09625 h 42.91334 v 5.68877 h -36.58638 v 23.4703 h 31.90993 v 5.40268 h -31.90993 v 24.84573 h 37.41164 z"
           id="path3283" />
        <path
           style="fill:#6d6e71"
           inkscape:connector-curvature="0"
           d="m 640.17744,573.74007 c 0.99031,0.99031 1.48546,2.18968 1.48546,3.58711 0,1.39744 -0.49515,2.59681 -1.48546,3.59812 -0.99031,1.00131 -2.20069,1.50747 -3.60912,1.50747 -1.41945,0 -2.61882,-0.49515 -3.59812,-1.48546 -0.97931,-0.99031 -1.47446,-2.18968 -1.47446,-3.58712 0,-1.39743 0.49515,-2.5968 1.48546,-3.59812 0.99031,-1.00131 2.18968,-1.50746 3.59812,-1.50746 1.40844,0 2.60781,0.49515 3.59812,1.48546 z m -0.42914,6.7671 c 0.86927,-0.88027 1.29841,-1.9366 1.29841,-3.16898 0,-1.23239 -0.42914,-2.27771 -1.2874,-3.14698 -0.85827,-0.86927 -1.9146,-1.30941 -3.15798,-1.30941 -1.24339,0 -2.29972,0.44014 -3.16899,1.30941 -0.85827,0.88027 -1.2984,1.9366 -1.2984,3.16898 0,1.23239 0.42913,2.28871 1.27639,3.15798 0.85827,0.86928 1.9036,1.30941 3.14698,1.30941 1.24339,0 2.32172,-0.44013 3.19099,-1.32041 z m -0.71522,-4.14829 c 0,0.91329 -0.39612,1.48546 -1.19937,1.71654 l 1.46345,1.98061 h -1.17736 l -1.32041,-1.83757 h -1.21038 v 1.83757 h -0.9573 v -5.50171 h 2.06865 c 0.83626,0 1.43044,0.14304 1.79355,0.42913 0.36312,0.28609 0.53917,0.74824 0.53917,1.37543 z m -1.22138,0.77024 c 0.18706,-0.15405 0.28609,-0.41813 0.28609,-0.78124 0,-0.36311 -0.099,-0.61619 -0.29709,-0.74823 -0.19806,-0.14305 -0.53917,-0.20907 -1.04533,-0.20907 h -1.16636 v 1.98062 h 1.14436 c 0.52816,0 0.88027,-0.077 1.07833,-0.24208 z"
           id="path3457" />
      </g>
    </g>
    <g
       id="g4564"
       transform="translate(-85.42109,56.235783)">
      <g
         transform="translate(216.2639,-21.04569)"
         id="g4478">
        <path
           sodipodi:type="arc"
           style="fill:url(#linearGradient4884);stroke:url(#linearGradient4886);stroke-width:5;stroke-linejoin:round"
           id="path4222"
           sodipodi:cx="412.33255"
           sodipodi:cy="629.22614"
           sodipodi:rx="63.02026"
           sodipodi:ry="63.02026"
           d="m 475.35281,629.22614 a 63.02026,63.02026 0 0 1 -63.02026,63.02026 63.02026,63.02026 0 0 1 -63.02026,-63.02026 63.02026,63.02026 0 0 1 63.02026,-63.02026 63.02026,63.02026 0 0 1 63.02026,63.02026 z"
           transform="matrix(0.99205956,0,0,0.99205956,-36.8047,240.87219)" />
      </g>
      <path
         id="path4491"
         d="m 573.3125,817.40625 c -0.88906,-10e-4 -1.78972,0.005 -2.6875,0.0312 -1.0437,0.0308 -2.44587,0.36218 -4.0625,0.90625 27.30936,20.73702 37.12671,58.14612 20.25,90.65625 0.57317,0.0149 1.14197,0.0625 1.71875,0.0625 30.8438,0 56.61984,-21.49325 63.28125,-50.3125 -19.57261,-22.9434 -46.11809,-41.29445 -78.5,-41.34375 z"
         style="opacity:0.75;fill:url(#linearGradient4888)"
         inkscape:connector-curvature="0" />
      <path
         id="path4496"
         d="m 566.5625,818.34375 c -9.06824,3.05185 -26.36759,13.8017 -43,28.15625 1.26312,34.19531 28.96142,61.60672 63.25,62.5 16.87671,-32.51013 7.05936,-69.91923 -20.25,-90.65625 z"
         style="opacity:0.75;fill:#28170b"
         inkscape:connector-curvature="0" />
      <g
         id="g4483">
        <path
           id="path4224-2"
           d="m 590.31114,806.30878 c -0.47239,-0.0321 -0.93151,0.0284 -1.375,0.25 -5.59922,2.80111 0,14 0,14 -16.80659,14.00851 -13.23603,37.9375 -32.84375,37.9375 -10.68885,0 -21.32208,-12.29336 -32.53125,-19.8125 -0.1443,1.77333 -0.25,3.56448 -0.25,5.375 0,24.51458 13.51013,45.86312 33.46875,57.06251 5.58277,-0.70321 11.15751,-2.11392 15.34375,-4.90625 21.99196,-14.6623 27.4523,-42.55657 36.4375,-56.03126 5.59618,-8.4063 31.82432,-7.67689 33.59375,-11.21875 2.80409,-5.6022 -5.60209,-14 -8.40625,-14 l -22.40625,0 c -1.56551,0 -4.02528,-2.78125 -5.59375,-2.78125 l -8.40625,0 c 0,0 -3.72451,-5.65027 -7.03125,-5.875 z"
           style="fill:#ffffff"
           inkscape:connector-curvature="0" />
      </g>
    </g>
    <g
       id="g4641"
       transform="translate(4.374995,13.14333)">
      <path
         transform="matrix(0.99205956,0,0,0.99205956,-172.02251,262.9251)"
         d="m 475.35281,629.22614 a 63.02026,63.02026 0 0 1 -63.02026,63.02026 63.02026,63.02026 0 0 1 -63.02026,-63.02026 63.02026,63.02026 0 0 1 63.02026,-63.02026 63.02026,63.02026 0 0 1 63.02026,63.02026 z"
         sodipodi:ry="63.02026"
         sodipodi:rx="63.02026"
         sodipodi:cy="629.22614"
         sodipodi:cx="412.33255"
         id="path4578"
         style="fill:url(#linearGradient4890);stroke:url(#linearGradient4892);stroke-width:5;stroke-linejoin:round"
         sodipodi:type="arc" />
      <path
         inkscape:connector-curvature="0"
         style="fill:#ffffff"
         d="m 238.62293,849.40741 c -0.47239,-0.032 -0.93151,0.028 -1.375,0.25 -5.59922,2.8011 0,14 0,14 -16.80659,14.0085 -13.23603,37.9375 -32.84375,37.9375 -10.68885,0 -21.32208,-12.2934 -32.53125,-19.8125 -0.1443,1.7733 -0.25,3.5645 -0.25,5.375 0,24.5146 13.51013,45.8631 33.46875,57.0625 5.58277,-0.7032 11.15751,-2.1139 15.34375,-4.9063 21.99196,-14.6623 27.4523,-42.5565 36.4375,-56.0312 5.59618,-8.4063 31.82432,-7.6769 33.59375,-11.2188 2.80409,-5.6022 -5.60209,-14 -8.40625,-14 l -22.40625,0 c -1.56551,0 -4.02528,-2.7812 -5.59375,-2.7812 l -8.40625,0 c 0,0 -3.72451,-5.6503 -7.03125,-5.875 z"
         id="path4580" />
    </g>
    <g
       id="g4620"
       transform="translate(0,-63.265199)">
      <path
         sodipodi:type="arc"
         style="fill:url(#linearGradient4753);stroke:url(#linearGradient4755);stroke-width:5;stroke-linejoin:round"
         id="path4242"
         sodipodi:cx="412.33255"
         sodipodi:cy="629.22614"
         sodipodi:rx="63.02026"
         sodipodi:ry="63.02026"
         d="m 475.35281,629.22614 a 63.02026,63.02026 0 0 1 -63.02026,63.02026 63.02026,63.02026 0 0 1 -63.02026,-63.02026 63.02026,63.02026 0 0 1 63.02026,-63.02026 63.02026,63.02026 0 0 1 63.02026,63.02026 z"
         transform="matrix(0.99205956,0,0,0.99205956,-184.13541,-107.38343)" />
      <path
         id="path4244"
         d="m 226.51003,479.09886 c -0.47239,-0.0321 -0.93151,0.0284 -1.375,0.25 -5.59922,2.80111 0,14 0,14 -16.80659,14.00851 -13.23603,37.9375 -32.84375,37.9375 -10.68885,0 -21.32208,-12.29336 -32.53125,-19.8125 -0.1443,1.77333 -0.25,3.56448 -0.25,5.375 0,24.51458 13.51013,45.86311 33.46875,57.0625 5.58277,-0.70321 11.15751,-2.11392 15.34375,-4.90625 21.99196,-14.6623 27.4523,-42.55656 36.4375,-56.03125 5.59618,-8.4063 31.82432,-7.67689 33.59375,-11.21875 2.80409,-5.6022 -5.60209,-14 -8.40625,-14 l -22.40625,0 c -1.56551,0 -4.02528,-2.78125 -5.59375,-2.78125 l -8.40625,0 c 0,0 -3.72451,-5.65027 -7.03125,-5.875 z"
         style="fill:#ffffff"
         inkscape:connector-curvature="0" />
      <g
         inkscape:export-ydpi="106.96"
         inkscape:export-xdpi="106.96"
         inkscape:export-filename="/home/zregvart/workspaces/camel-salesforce/camel/docs/img/logo-medium.png"
         transform="translate(73.918961,-138.30344)"
         id="g3983">
        <g
           id="g7198"
           transform="translate(-72.023152,20.160046)">
          <g
             id="text7172"
             style="font-size:27.92029381px;letter-spacing:0px;word-spacing:0px;fill:#6c5d53;font-family:Sans">
            <path
               id="path4009"
               style="-inkscape-font-specification:Judson Medium"
               d="m 335.43979,637.17977 c 9.45999,0 13.75,5.28001 14.63,11.33 l 2.42,0 -1.1,-13.97 -2.53,0 c 0,1.32 -0.55,2.2 -1.32,2.2 -2.09,0 -6.6,-3.3 -12.21,-3.3 -17.26998,0 -33.33,12.87002 -33.33,34.21 0,16.71998 11.22002,32.34 31.68,32.34 13.52999,0 19.91,-7.70001 22.66,-14.3 l -2.64,-1.32 c -1.98,5.39 -10.12001,11.88 -17.82,11.88 -11.43999,0 -22.44,-10.56002 -22.44,-31.02 0,-16.71998 9.46001,-28.05 22,-28.05"
               inkscape:connector-curvature="0" />
            <path
               id="path4011"
               style="-inkscape-font-specification:Judson Medium"
               d="m 371.57479,658.62977 c 1.1,-4.29 5.50001,-5.28 11.22,-5.28 8.57999,0 11,6.05001 11,17.82 -11.10999,3.19 -31.02,5.17001 -31.02,15.4 0,10.55999 7.26001,13.42 16.5,13.42 7.69999,0 12.98,-2.42 16.17,-4.73 1.76,3.52 4.62,4.51 7.81,4.51 7.58999,0 10.12,-1.87 10.12,-5.94 l -1.98,0 c 0,1.54 -1.87,2.64 -3.74,2.64 -1.87,0 -3.96,-1.76 -3.96,-6.82 l 0,-21.78 c 0,-10.22999 -5.39001,-18.48 -19.8,-18.48 -11.54999,0 -18.15,4.40001 -18.15,12.1 0,3.3 1.87,5.5 4.73,5.5 2.31,0 4.95,-1.1 4.95,-3.85 0,-3.41 -2.09,-4.51 -3.85,-4.51 m 22.88,33.88 c -3.41,2.09 -8.91,3.74 -13.31,3.74 -4.94999,0 -8.14,-1.98001 -8.14,-9.46 0,-8.90999 13.09001,-10.78 20.79,-13.2 l 0,12.98 c 0,2.31 0.22,4.29 0.66,5.94"
               inkscape:connector-curvature="0" />
            <path
               id="path4013"
               style="-inkscape-font-specification:Judson Medium"
               d="m 415.7312,698.88977 23.76,0 0,-2.31 c -4.62,0 -6.27,-0.66 -6.93,-2.2 l 0,-36.41 c 2.52999,-2.31 6.49,-4.84 11.55,-4.84 6.59999,0 9.24,3.19001 9.24,12.87 l 0,28.38 c -0.66,1.54 -2.31001,2.2 -6.93,2.2 l 0,2.31 23.76,0 0,-2.31 c -4.62,0 -6.27,-0.66 -6.93,-2.2 l 0,-32.45 c 0,-1.21 -0.11,-2.42 -0.44,-3.52 2.52999,-2.42 6.6,-5.28 11.99,-5.28 6.59999,0 9.24,3.19001 9.24,12.87 l 0,28.38 c -0.66,1.54 -2.31001,2.2 -6.93,2.2 l 0,2.31 23.76,0 0,-2.31 c -4.62,0 -6.27,-0.66 -6.93,-2.2 l 0,-32.45 c 0,-7.91999 -5.50002,-12.54 -18.48,-12.54 -6.16,0 -11.00001,3.52 -13.75,6.38 -2.42,-4.07 -7.81001,-6.38 -16.94,-6.38 -5.17,0 -9.35001,2.53 -12.21,4.95 l 0,-4.95 c -4.95,0 -12.54001,4.73 -16.83,4.73 l 0,2.53 c 1.65,0 4.18,0.33 6.93,0.55 l 0,37.18 c -0.66,1.54 -2.31001,2.2 -6.93,2.2 l 0,2.31"
               inkscape:connector-curvature="0" />
            <path
               id="path4015"
               style="-inkscape-font-specification:Judson Medium"
               d="m 517.08073,672.37977 35.31,0 c 0,-12.09999 -6.60002,-22.99 -23.1,-22.99 -14.73999,0 -22.66,10.56001 -22.66,22.88 0,22.21998 13.64001,27.72 23.76,27.72 11.43999,0 17.6,-3.30001 21.78,-10.12 l -2.64,-1.32 c -4.4,5.5 -9.02001,7.26 -15.4,7.26 -8.68999,0 -16.83,-11.11001 -17.05,-23.43 m 0.11,-3.41 c 0.99,-10.11999 6.82,-16.28 11.66,-16.28 9.78999,0 11.99,7.15001 12.76,16.28 l -24.42,0"
               inkscape:connector-curvature="0" />
            <path
               id="path4017"
               style="-inkscape-font-specification:Judson Medium"
               d="m 558.79135,698.88977 23.76,0 0,-2.31 c -4.61999,0 -6.27,-0.66 -6.93,-2.2 l 0,-64.79 c -4.94999,0 -12.54,4.73 -16.83,4.73 l 0,2.53 c 1.65,0 4.18001,0.33 6.93,0.55 l 0,56.98 c -0.66,1.54 -2.31,2.2 -6.93,2.2 l 0,2.31"
               inkscape:connector-curvature="0" />
          </g>
          <g
             id="g7176"
             transform="matrix(0.35549945,0,0,0.35549945,203.40098,388.26524)">
            <path
               id="path7184"
               d="m 280.2335,639.49652 27.23347,-65.09625 h 5.22662 l 27.23347,65.09625 h -6.87714 l -8.43962,-20.35633 h -29.24709 l -8.3406,20.35633 h -6.78911 z m 29.89629,-57.58091 -13.39116,32.18501 h 26.40821 l -13.01705,-32.18501 z"
               inkscape:connector-curvature="0"
               style="fill:#d22128" />
            <path
               id="path7186"
               d="m 346.95825,639.49652 v -65.09625 h 26.95838 c 11.19048,0 19.25599,10.36523 19.25599,20.44436 0,10.64031 -7.51534,20.63142 -18.70582,20.63142 h -21.18159 v 24.02047 h -6.32696 z m 6.32696,-29.70924 h 20.80748 c 7.70239,0 12.65393,-7.0642 12.65393,-14.94265 0,-8.16454 -6.05188,-14.76659 -13.20411,-14.76659 h -20.2573 v 29.70924 z"
               inkscape:connector-curvature="0"
               style="fill:#d22128" />
            <path
               id="path7188"
               d="m 389.60751,639.49652 27.23347,-65.09625 h 5.22663 l 27.23346,65.09625 h -6.87713 l -8.43963,-20.35633 h -29.24709 l -8.3406,20.35633 h -6.78911 z m 29.8853,-57.58091 -13.39117,32.18501 h 26.40821 l -13.01704,-32.18501 z"
               inkscape:connector-curvature="0"
               style="fill:#d22128" />
            <path
               id="path7190"
               d="m 480.09965,574.03716 c 11.5536,0 19.98222,5.86482 24.02047,14.21642 l -5.1386,3.11397 c -4.12628,-8.61568 -12.19179,-11.55359 -19.25598,-11.55359 -15.59185,0 -24.1085,13.94133 -24.1085,27.04641 0,14.39247 10.54128,27.40952 24.38358,27.40952 7.33928,0 15.95496,-3.66414 20.08125,-12.10376 l 5.31465,2.75085 c -4.21431,9.71602 -15.7679,15.12971 -25.75901,15.12971 -17.88056,0 -30.43547,-17.05531 -30.43547,-33.56044 0,-15.67988 11.26751,-32.44909 30.89761,-32.44909 z"
               inkscape:connector-curvature="0"
               style="fill:#d22128" />
            <path
               id="path7192"
               d="m 565.69527,574.40027 v 65.09625 h -6.41499 v -30.43547 h -38.6 v 30.43547 h -6.32698 v -65.09625 h 6.32698 v 28.97201 h 38.6 v -28.97201 h 6.41499 z"
               inkscape:connector-curvature="0"
               style="fill:#d22128" />
            <path
               id="path7194"
               d="m 624.13445,633.80775 v 5.68877 h -43.7386 v -65.09625 h 42.91334 v 5.68877 h -36.58638 v 23.4703 h 31.90993 v 5.40268 h -31.90993 v 24.84573 h 37.41164 z"
               inkscape:connector-curvature="0"
               style="fill:#d22128" />
            <path
               id="path7196"
               d="m 640.17744,573.74007 c 0.99031,0.99031 1.48546,2.18968 1.48546,3.58711 0,1.39744 -0.49515,2.59681 -1.48546,3.59812 -0.99031,1.00131 -2.20069,1.50747 -3.60912,1.50747 -1.41945,0 -2.61882,-0.49515 -3.59812,-1.48546 -0.97931,-0.99031 -1.47446,-2.18968 -1.47446,-3.58712 0,-1.39743 0.49515,-2.5968 1.48546,-3.59812 0.99031,-1.00131 2.18968,-1.50746 3.59812,-1.50746 1.40844,0 2.60781,0.49515 3.59812,1.48546 z m -0.42914,6.7671 c 0.86927,-0.88027 1.29841,-1.9366 1.29841,-3.16898 0,-1.23239 -0.42914,-2.27771 -1.2874,-3.14698 -0.85827,-0.86927 -1.9146,-1.30941 -3.15798,-1.30941 -1.24339,0 -2.29972,0.44014 -3.16899,1.30941 -0.85827,0.88027 -1.2984,1.9366 -1.2984,3.16898 0,1.23239 0.42913,2.28871 1.27639,3.15798 0.85827,0.86928 1.9036,1.30941 3.14698,1.30941 1.24339,0 2.32172,-0.44013 3.19099,-1.32041 z m -0.71522,-4.14829 c 0,0.91329 -0.39612,1.48546 -1.19937,1.71654 l 1.46345,1.98061 h -1.17736 l -1.32041,-1.83757 h -1.21038 v 1.83757 h -0.9573 v -5.50171 h 2.06865 c 0.83626,0 1.43044,0.14304 1.79355,0.42913 0.36312,0.28609 0.53917,0.74824 0.53917,1.37543 z m -1.22138,0.77024 c 0.18706,-0.15405 0.28609,-0.41813 0.28609,-0.78124 0,-0.36311 -0.099,-0.61619 -0.29709,-0.74823 -0.19806,-0.14305 -0.53917,-0.20907 -1.04533,-0.20907 h -1.16636 v 1.98062 h 1.14436 c 0.52816,0 0.88027,-0.077 1.07833,-0.24208 z"
               inkscape:connector-curvature="0"
               style="fill:#6d6e71" />
          </g>
        </g>
        <g
           id="g3957"
           transform="translate(-5.4017408,7.3976335)" />
      </g>
    </g>
    <g
       id="g4839"
       transform="translate(0,2.2798273)">
      <g
         id="g4763"
         transform="translate(73.918961,19.51005)"
         inkscape:export-filename="/home/zregvart/workspaces/camel-salesforce/camel/docs/img/logo-medium.png"
         inkscape:export-xdpi="106.96"
         inkscape:export-ydpi="106.96">
        <g
           transform="translate(-72.023152,20.160046)"
           id="g4765">
          <g
             style="font-size:27.92029381px;letter-spacing:0px;word-spacing:0px;fill:#6c5d53;font-family:Sans"
             id="g4767">
            <path
               inkscape:connector-curvature="0"
               d="m 335.43979,637.17977 c 9.45999,0 13.75,5.28001 14.63,11.33 l 2.42,0 -1.1,-13.97 -2.53,0 c 0,1.32 -0.55,2.2 -1.32,2.2 -2.09,0 -6.6,-3.3 -12.21,-3.3 -17.26998,0 -33.33,12.87002 -33.33,34.21 0,16.71998 11.22002,32.34 31.68,32.34 13.52999,0 19.91,-7.70001 22.66,-14.3 l -2.64,-1.32 c -1.98,5.39 -10.12001,11.88 -17.82,11.88 -11.43999,0 -22.44,-10.56002 -22.44,-31.02 0,-16.71998 9.46001,-28.05 22,-28.05"
               style="-inkscape-font-specification:Judson Medium"
               id="path4769" />
            <path
               inkscape:connector-curvature="0"
               d="m 371.57479,658.62977 c 1.1,-4.29 5.50001,-5.28 11.22,-5.28 8.57999,0 11,6.05001 11,17.82 -11.10999,3.19 -31.02,5.17001 -31.02,15.4 0,10.55999 7.26001,13.42 16.5,13.42 7.69999,0 12.98,-2.42 16.17,-4.73 1.76,3.52 4.62,4.51 7.81,4.51 7.58999,0 10.12,-1.87 10.12,-5.94 l -1.98,0 c 0,1.54 -1.87,2.64 -3.74,2.64 -1.87,0 -3.96,-1.76 -3.96,-6.82 l 0,-21.78 c 0,-10.22999 -5.39001,-18.48 -19.8,-18.48 -11.54999,0 -18.15,4.40001 -18.15,12.1 0,3.3 1.87,5.5 4.73,5.5 2.31,0 4.95,-1.1 4.95,-3.85 0,-3.41 -2.09,-4.51 -3.85,-4.51 m 22.88,33.88 c -3.41,2.09 -8.91,3.74 -13.31,3.74 -4.94999,0 -8.14,-1.98001 -8.14,-9.46 0,-8.90999 13.09001,-10.78 20.79,-13.2 l 0,12.98 c 0,2.31 0.22,4.29 0.66,5.94"
               style="-inkscape-font-specification:Judson Medium"
               id="path4771" />
            <path
               inkscape:connector-curvature="0"
               d="m 415.7312,698.88977 23.76,0 0,-2.31 c -4.62,0 -6.27,-0.66 -6.93,-2.2 l 0,-36.41 c 2.52999,-2.31 6.49,-4.84 11.55,-4.84 6.59999,0 9.24,3.19001 9.24,12.87 l 0,28.38 c -0.66,1.54 -2.31001,2.2 -6.93,2.2 l 0,2.31 23.76,0 0,-2.31 c -4.62,0 -6.27,-0.66 -6.93,-2.2 l 0,-32.45 c 0,-1.21 -0.11,-2.42 -0.44,-3.52 2.52999,-2.42 6.6,-5.28 11.99,-5.28 6.59999,0 9.24,3.19001 9.24,12.87 l 0,28.38 c -0.66,1.54 -2.31001,2.2 -6.93,2.2 l 0,2.31 23.76,0 0,-2.31 c -4.62,0 -6.27,-0.66 -6.93,-2.2 l 0,-32.45 c 0,-7.91999 -5.50002,-12.54 -18.48,-12.54 -6.16,0 -11.00001,3.52 -13.75,6.38 -2.42,-4.07 -7.81001,-6.38 -16.94,-6.38 -5.17,0 -9.35001,2.53 -12.21,4.95 l 0,-4.95 c -4.95,0 -12.54001,4.73 -16.83,4.73 l 0,2.53 c 1.65,0 4.18,0.33 6.93,0.55 l 0,37.18 c -0.66,1.54 -2.31001,2.2 -6.93,2.2 l 0,2.31"
               style="-inkscape-font-specification:Judson Medium"
               id="path4773" />
            <path
               inkscape:connector-curvature="0"
               d="m 517.08073,672.37977 35.31,0 c 0,-12.09999 -6.60002,-22.99 -23.1,-22.99 -14.73999,0 -22.66,10.56001 -22.66,22.88 0,22.21998 13.64001,27.72 23.76,27.72 11.43999,0 17.6,-3.30001 21.78,-10.12 l -2.64,-1.32 c -4.4,5.5 -9.02001,7.26 -15.4,7.26 -8.68999,0 -16.83,-11.11001 -17.05,-23.43 m 0.11,-3.41 c 0.99,-10.11999 6.82,-16.28 11.66,-16.28 9.78999,0 11.99,7.15001 12.76,16.28 l -24.42,0"
               style="-inkscape-font-specification:Judson Medium"
               id="path4775" />
            <path
               inkscape:connector-curvature="0"
               d="m 558.79135,698.88977 23.76,0 0,-2.31 c -4.61999,0 -6.27,-0.66 -6.93,-2.2 l 0,-64.79 c -4.94999,0 -12.54,4.73 -16.83,4.73 l 0,2.53 c 1.65,0 4.18001,0.33 6.93,0.55 l 0,56.98 c -0.66,1.54 -2.31,2.2 -6.93,2.2 l 0,2.31"
               style="-inkscape-font-specification:Judson Medium"
               id="path4777" />
          </g>
          <g
             transform="matrix(0.35549945,0,0,0.35549945,203.40098,388.26524)"
             id="g4779">
            <path
               style="fill:#d22128"
               inkscape:connector-curvature="0"
               d="m 280.2335,639.49652 27.23347,-65.09625 h 5.22662 l 27.23347,65.09625 h -6.87714 l -8.43962,-20.35633 h -29.24709 l -8.3406,20.35633 h -6.78911 z m 29.89629,-57.58091 -13.39116,32.18501 h 26.40821 l -13.01705,-32.18501 z"
               id="path4781" />
            <path
               style="fill:#d22128"
               inkscape:connector-curvature="0"
               d="m 346.95825,639.49652 v -65.09625 h 26.95838 c 11.19048,0 19.25599,10.36523 19.25599,20.44436 0,10.64031 -7.51534,20.63142 -18.70582,20.63142 h -21.18159 v 24.02047 h -6.32696 z m 6.32696,-29.70924 h 20.80748 c 7.70239,0 12.65393,-7.0642 12.65393,-14.94265 0,-8.16454 -6.05188,-14.76659 -13.20411,-14.76659 h -20.2573 v 29.70924 z"
               id="path4783" />
            <path
               style="fill:#d22128"
               inkscape:connector-curvature="0"
               d="m 389.60751,639.49652 27.23347,-65.09625 h 5.22663 l 27.23346,65.09625 h -6.87713 l -8.43963,-20.35633 h -29.24709 l -8.3406,20.35633 h -6.78911 z m 29.8853,-57.58091 -13.39117,32.18501 h 26.40821 l -13.01704,-32.18501 z"
               id="path4785" />
            <path
               style="fill:#d22128"
               inkscape:connector-curvature="0"
               d="m 480.09965,574.03716 c 11.5536,0 19.98222,5.86482 24.02047,14.21642 l -5.1386,3.11397 c -4.12628,-8.61568 -12.19179,-11.55359 -19.25598,-11.55359 -15.59185,0 -24.1085,13.94133 -24.1085,27.04641 0,14.39247 10.54128,27.40952 24.38358,27.40952 7.33928,0 15.95496,-3.66414 20.08125,-12.10376 l 5.31465,2.75085 c -4.21431,9.71602 -15.7679,15.12971 -25.75901,15.12971 -17.88056,0 -30.43547,-17.05531 -30.43547,-33.56044 0,-15.67988 11.26751,-32.44909 30.89761,-32.44909 z"
               id="path4787" />
            <path
               style="fill:#d22128"
               inkscape:connector-curvature="0"
               d="m 565.69527,574.40027 v 65.09625 h -6.41499 v -30.43547 h -38.6 v 30.43547 h -6.32698 v -65.09625 h 6.32698 v 28.97201 h 38.6 v -28.97201 h 6.41499 z"
               id="path4789" />
            <path
               style="fill:#d22128"
               inkscape:connector-curvature="0"
               d="m 624.13445,633.80775 v 5.68877 h -43.7386 v -65.09625 h 42.91334 v 5.68877 h -36.58638 v 23.4703 h 31.90993 v 5.40268 h -31.90993 v 24.84573 h 37.41164 z"
               id="path4791" />
            <path
               style="fill:#6d6e71"
               inkscape:connector-curvature="0"
               d="m 640.17744,573.74007 c 0.99031,0.99031 1.48546,2.18968 1.48546,3.58711 0,1.39744 -0.49515,2.59681 -1.48546,3.59812 -0.99031,1.00131 -2.20069,1.50747 -3.60912,1.50747 -1.41945,0 -2.61882,-0.49515 -3.59812,-1.48546 -0.97931,-0.99031 -1.47446,-2.18968 -1.47446,-3.58712 0,-1.39743 0.49515,-2.5968 1.48546,-3.59812 0.99031,-1.00131 2.18968,-1.50746 3.59812,-1.50746 1.40844,0 2.60781,0.49515 3.59812,1.48546 z m -0.42914,6.7671 c 0.86927,-0.88027 1.29841,-1.9366 1.29841,-3.16898 0,-1.23239 -0.42914,-2.27771 -1.2874,-3.14698 -0.85827,-0.86927 -1.9146,-1.30941 -3.15798,-1.30941 -1.24339,0 -2.29972,0.44014 -3.16899,1.30941 -0.85827,0.88027 -1.2984,1.9366 -1.2984,3.16898 0,1.23239 0.42913,2.28871 1.27639,3.15798 0.85827,0.86928 1.9036,1.30941 3.14698,1.30941 1.24339,0 2.32172,-0.44013 3.19099,-1.32041 z m -0.71522,-4.14829 c 0,0.91329 -0.39612,1.48546 -1.19937,1.71654 l 1.46345,1.98061 h -1.17736 l -1.32041,-1.83757 h -1.21038 v 1.83757 h -0.9573 v -5.50171 h 2.06865 c 0.83626,0 1.43044,0.14304 1.79355,0.42913 0.36312,0.28609 0.53917,0.74824 0.53917,1.37543 z m -1.22138,0.77024 c 0.18706,-0.15405 0.28609,-0.41813 0.28609,-0.78124 0,-0.36311 -0.099,-0.61619 -0.29709,-0.74823 -0.19806,-0.14305 -0.53917,-0.20907 -1.04533,-0.20907 h -1.16636 v 1.98062 h 1.14436 c 0.52816,0 0.88027,-0.077 1.07833,-0.24208 z"
               id="path4793" />
          </g>
        </g>
        <g
           transform="translate(-5.4017408,7.3976335)"
           id="g4795" />
      </g>
      <g
         id="g4801"
         transform="translate(-386.87395,-169.40258)">
        <g
           transform="translate(216.2639,-21.04569)"
           id="g4803">
          <path
             sodipodi:type="arc"
             style="fill:url(#linearGradient4866);stroke:url(#linearGradient4868);stroke-width:5;stroke-linejoin:round"
             id="path4805"
             sodipodi:cx="412.33255"
             sodipodi:cy="629.22614"
             sodipodi:rx="63.02026"
             sodipodi:ry="63.02026"
             d="m 475.35281,629.22614 a 63.02026,63.02026 0 0 1 -63.02026,63.02026 63.02026,63.02026 0 0 1 -63.02026,-63.02026 63.02026,63.02026 0 0 1 63.02026,-63.02026 63.02026,63.02026 0 0 1 63.02026,63.02026 z"
             transform="matrix(0.99205956,0,0,0.99205956,-36.8047,240.87219)" />
        </g>
        <path
           id="path4807"
           d="m 573.3125,817.40625 c -0.88906,-10e-4 -1.78972,0.005 -2.6875,0.0312 -1.0437,0.0308 -2.44587,0.36218 -4.0625,0.90625 27.30936,20.73702 37.12671,58.14612 20.25,90.65625 0.57317,0.0149 1.14197,0.0625 1.71875,0.0625 30.8438,0 56.61984,-21.49325 63.28125,-50.3125 -19.57261,-22.9434 -46.11809,-41.29445 -78.5,-41.34375 z"
           style="opacity:0.75;fill:url(#linearGradient4870)"
           inkscape:connector-curvature="0" />
        <path
           id="path4809"
           d="m 566.5625,818.34375 c -9.06824,3.05185 -26.36759,13.8017 -43,28.15625 1.26312,34.19531 28.96142,61.60672 63.25,62.5 16.87671,-32.51013 7.05936,-69.91923 -20.25,-90.65625 z"
           style="opacity:0.75;fill:#28170b"
           inkscape:connector-curvature="0" />
        <g
           id="g4811">
          <path
             id="path4813"
             d="m 590.31114,806.30878 c -0.47239,-0.0321 -0.93151,0.0284 -1.375,0.25 -5.59922,2.80111 0,14 0,14 -16.80659,14.00851 -13.23603,37.9375 -32.84375,37.9375 -10.68885,0 -21.32208,-12.29336 -32.53125,-19.8125 -0.1443,1.77333 -0.25,3.56448 -0.25,5.375 0,24.51458 13.51013,45.86312 33.46875,57.06251 5.58277,-0.70321 11.15751,-2.11392 15.34375,-4.90625 21.99196,-14.6623 27.4523,-42.55657 36.4375,-56.03126 5.59618,-8.4063 31.82432,-7.67689 33.59375,-11.21875 2.80409,-5.6022 -5.60209,-14 -8.40625,-14 l -22.40625,0 c -1.56551,0 -4.02528,-2.78125 -5.59375,-2.78125 l -8.40625,0 c 0,0 -3.72451,-5.65027 -7.03125,-5.875 z"
             style="fill:#ffffff"
             inkscape:connector-curvature="0" />
        </g>
      </g>
    </g>
  </g>
</svg>
