<svg xmlns="http://www.w3.org/2000/svg" viewBox="0 0 462 504.6"><defs><style>.a{fill:#0f0f0f;}.b{fill:#dd7300;}.c{fill:#fff;}.d{fill:#ffdfca;}</style></defs><title>logo</title><path class="a" d="M29.57,94.13V346.05c0,8.19,5.72,16,15.62,21.23l149.68,79.58c16.26,8.65,40,8.65,56.23,0L400.8,367.28c9.9-5.27,15.62-13,15.62-21.23V94.13c0-15.31-19.58-27.71-43.74-27.71H73.31C49.16,66.42,29.57,78.83,29.57,94.13Z"/><path class="b" d="M50.37,112V336.79c0,7.31,5.11,14.25,13.94,18.95l133.59,71c14.51,7.72,35.67,7.72,50.19,0l133.59-71c8.84-4.7,13.94-11.64,13.94-18.95V112c0-13.66-17.48-24.73-39-24.73H89.4C67.84,87.22,50.37,98.29,50.37,112Z"/><path class="c" d="M192.25,270.33l-44.57-36-3.27-20.18L153.34,283l-13.86,4.51,11.94,49.27H139.58l-23.17-61.24,9.31-6.65-14.39-53.32L92.9,242.28l14.8-40.34,62.59-62.67,68.08,46,18.44-10,25.56,20.14,18.33-.68,21.65-41.11,3.3-11,5.92,7.87,38.57,3.38,9.9,9.3v14.62l-45.76-.07-26.16,54.91-26.93,8.76-2.81-21.88.25,13.19,4.4,48.13-3.13,18.78,3.47,37.13h-9.13l-6.94-37.13-.51-19.54-21.74-72.82,11.46,42.17C256.34,249.52,192.25,270.33,192.25,270.33Z"/><polygon class="c" points="115.14 336.76 104.06 336.76 86.3 267.49 97.16 261.62 111 221.65 121.74 263.85 114.38 270.28 104.06 274.51 115.14 336.76"/><polygon class="c" points="262.31 336.84 250.47 336.84 248.61 307.49 252.81 251.63 256.71 250.39 265.01 279.84 259.01 307.49 262.31 336.84"/><polygon class="d" points="351.45 156.44 361.81 157.49 352.94 159.71 351.45 156.44"/></svg>