<svg xmlns="http://www.w3.org/2000/svg" viewBox="0 0 1165.7 504.6"><defs><style>.a{fill:#dd7300;}.b{fill:#0f0f0f;}.c{fill:#fff;}</style></defs><title>logo</title><path class="a" d="M539.24,78.28h9.49l36,84.84H573l-8.62-20.82H522l-8.72,20.82H501.86Zm4.55,12.88h-.19L526,132.8h34.58Z"/><path class="a" d="M596,78.28h25.18a53.25,53.25,0,0,1,11.23,1.16,27.61,27.61,0,0,1,9.49,3.87,19.54,19.54,0,0,1,6.59,7.17,22.7,22.7,0,0,1,2.42,11A23.06,23.06,0,0,1,648.29,113a20.1,20.1,0,0,1-6.78,7.17,27.21,27.21,0,0,1-9,3.68,46.44,46.44,0,0,1-9.3,1.07h-17V163H596.09V78.28Zm10.07,37.38h17c5,0,9.1-1.16,12.3-3.39s4.75-5.81,4.75-10.56-1.55-8.33-4.75-10.56-7.26-3.39-12.3-3.39h-17Z"/><path class="a" d="M685.78,78.28h9.49l36,84.84H719.58L711,142.3H668.54l-8.72,20.82H648.39Zm4.55,12.88h-.19L672.51,132.8h34.58Z"/><path class="a" d="M802,95.71A24.54,24.54,0,0,0,792.5,88a27.56,27.56,0,0,0-11.72-2.61,29,29,0,0,0-13,2.91A32.31,32.31,0,0,0,757.54,96a33.63,33.63,0,0,0-6.68,11.23,36.72,36.72,0,0,0-2.42,13.37,38.21,38.21,0,0,0,2.42,13.85,33.19,33.19,0,0,0,6.68,11.14A30.1,30.1,0,0,0,767.71,153a30.69,30.69,0,0,0,13.07,2.71,30.37,30.37,0,0,0,13.85-3.1,30.77,30.77,0,0,0,10.65-8.81l7.55,6.39A34.15,34.15,0,0,1,799,161.47a46,46,0,0,1-18.3,3.58,43.53,43.53,0,0,1-17-3.39,42.1,42.1,0,0,1-13.75-9.3,43.39,43.39,0,0,1-9.1-14,46.68,46.68,0,0,1-3.29-17.82,47.76,47.76,0,0,1,3.2-17.53,41.84,41.84,0,0,1,22.57-23.63,42.32,42.32,0,0,1,17.34-3.49A46.09,46.09,0,0,1,797.15,79a29.85,29.85,0,0,1,13.37,10.17Z"/><path class="a" d="M826.89,78.28H837v35.93h45.33V78.28h10.07v84.84H882.28V123.6H837v39.51H826.89Z"/><path class="a" d="M913.37,78.28h53.27v9.3H923.35v26.63h40.39v9.3H923.35v30.22h45.42V163h-55.5V78.28Z"/><path d="M615.19,226.18a42.71,42.71,0,0,0-16.66-13.6A49.14,49.14,0,0,0,577.86,208,51.75,51.75,0,0,0,555,213.11a57.38,57.38,0,0,0-18,13.6,62.44,62.44,0,0,0-11.81,19.83A66.6,66.6,0,0,0,520.92,270a69,69,0,0,0,4.22,24.36A60.91,60.91,0,0,0,536.84,314a54.88,54.88,0,0,0,17.93,13.18,57.88,57.88,0,0,0,47.55-.53,55.49,55.49,0,0,0,18.77-15.5l13.29,11.18A61.43,61.43,0,0,1,610,342.17q-14.23,6.33-32.16,6.33a75.87,75.87,0,0,1-29.94-5.91,73.69,73.69,0,0,1-24.15-16.34,75.25,75.25,0,0,1-16-24.78,83,83,0,0,1-5.8-31.42,84,84,0,0,1,5.59-30.79,74.14,74.14,0,0,1,70.33-47.66,79.55,79.55,0,0,1,29.21,5.48A53.81,53.81,0,0,1,630.58,215Z"/><path d="M654.83,258.66a46.4,46.4,0,0,1,18-11.49,63.23,63.23,0,0,1,21.19-3.69q21.93,0,31.63,10.33t9.7,31.42v42.39q0,4.22.42,8.75t1.05,8.33H721a34.41,34.41,0,0,1-.95-7.49q-.11-4.11-.11-7.27h-.42a38.6,38.6,0,0,1-13,12.44q-8.12,4.85-19.51,4.85a51.6,51.6,0,0,1-14.24-1.9,35.46,35.46,0,0,1-11.6-5.59,27.55,27.55,0,0,1-7.91-9.17,26.25,26.25,0,0,1-3-12.65q0-12.23,6.33-19.19a38.42,38.42,0,0,1,15.71-10.33,77.38,77.38,0,0,1,20.25-4.22q10.86-.84,19.93-.84h6.33v-3q0-10.75-6.43-16.24t-18-5.48a48.17,48.17,0,0,0-15.71,2.64,37.73,37.73,0,0,0-13.6,8.12Zm47.66,38.59q-15.82,0-25.1,4.43t-9.28,14.55q0,9.28,6.22,13.18t15.5,3.9a30.26,30.26,0,0,0,12.55-2.42,26.39,26.39,0,0,0,9-6.43,27.78,27.78,0,0,0,5.48-9.38,38.33,38.33,0,0,0,2.11-11.49v-6.33Z"/><path d="M765.55,269.42q0-6.75-.42-12.65T764.7,246h15.61q0,4,.21,8t.21,8.22h.42a28.43,28.43,0,0,1,4.75-7,34.15,34.15,0,0,1,7.27-6,38.88,38.88,0,0,1,9.49-4.22A39.5,39.5,0,0,1,814,243.48a38.72,38.72,0,0,1,13.39,2,32.74,32.74,0,0,1,9,4.85,23.87,23.87,0,0,1,5.59,6.12q2,3.27,3.27,5.8a45.61,45.61,0,0,1,12.65-13.81q7.17-5,18.56-5,10.54,0,17.72,2.85a28.14,28.14,0,0,1,11.6,8.23,32.42,32.42,0,0,1,6.33,13.08,71.87,71.87,0,0,1,1.9,17.19V344.7H897.56v-59a46.56,46.56,0,0,0-1.05-9.91,23,23,0,0,0-3.79-8.65,19.91,19.91,0,0,0-7.38-6.12,26.4,26.4,0,0,0-11.81-2.32,23.72,23.72,0,0,0-9.91,2.11,24.9,24.9,0,0,0-8.12,5.91,27.71,27.71,0,0,0-5.48,9.17,33.88,33.88,0,0,0-2,11.91V344.7H831.55V288.82q0-16.45-4.43-23.3t-14.55-6.85a32.08,32.08,0,0,0-13.81,2.74,24.46,24.46,0,0,0-9.49,7.8,34.87,34.87,0,0,0-5.48,12,61.62,61.62,0,0,0-1.79,15.4V344.7H765.55Z"/><path d="M1033.37,326.78q-8.86,11.39-19.4,15.92t-24.46,4.54a51,51,0,0,1-20.88-4.11A47,47,0,0,1,952.91,332,48.54,48.54,0,0,1,943,315.6a58.33,58.33,0,0,1-3.48-20.24,56.55,56.55,0,0,1,3.8-21,48.61,48.61,0,0,1,10.54-16.45,47.4,47.4,0,0,1,16-10.65,53,53,0,0,1,20.25-3.8,50.39,50.39,0,0,1,19,3.48A41.14,41.14,0,0,1,1024,257.08a45.51,45.51,0,0,1,9.6,16.24,65.66,65.66,0,0,1,3.37,21.83v5.27H957.24a34.55,34.55,0,0,0,3.06,12.13,35.1,35.1,0,0,0,6.85,10.12,31.64,31.64,0,0,0,9.91,6.85A30.25,30.25,0,0,0,989.5,332q10.76,0,18.14-3.79a41.23,41.23,0,0,0,13.29-11.18Zm-14.13-40.28q-.43-12.66-8.22-20.25t-21.51-7.59q-13.71,0-22.14,7.59T957.24,286.5Z"/><path d="M1063.95,185.27h16.45V344.7h-16.45Z"/><path class="b" d="M48.59,85.55V337.47c0,8.19,5.72,16,15.62,21.23L213.9,438.28c16.26,8.65,40,8.65,56.23,0L419.82,358.7c9.9-5.27,15.62-13,15.62-21.23V85.55c0-15.31-19.58-27.71-43.74-27.71H92.33C68.17,57.84,48.59,70.24,48.59,85.55Z"/><path class="a" d="M69.38,103.37V328.2c0,7.31,5.11,14.25,13.94,18.95l133.59,71c14.51,7.72,35.67,7.72,50.19,0l133.59-71c8.84-4.7,13.94-11.64,13.94-18.95V103.37c0-13.66-17.48-24.73-39-24.73H108.42C86.86,78.63,69.38,89.71,69.38,103.37Z"/><polygon class="c" points="134.16 328.17 123.08 328.17 105.32 258.9 116.17 253.03 130.01 213.06 140.75 255.27 133.4 261.69 123.08 265.92 134.16 328.17"/><polygon class="c" points="281.32 328.26 269.48 328.26 267.62 298.91 271.83 243.05 275.73 241.8 284.03 271.25 278.03 298.91 281.32 328.26"/><path class="c" d="M389.16,145.31l-38.57-3.38-5.92-7.87-3.3,11-21.65,41.11-18.33.68-25.56-20.14-18.44,10-68.08-46-62.59,62.67-14.8,40.34L130.35,207l14.39,53.32-9.31,6.65,23.17,61.24h11.84L158.5,278.9l13.86-4.51-8.93-68.86,3.27,20.18,44.57,36s64.1-20.81,64.27-20.89l-11.46-42.17,21.74,72.82.51,19.54,6.94,37.13h9.13L298.92,291,302,272.27l-4.4-48.13-.25-13.19,2.81,21.88,26.93-8.76,26.16-54.91,45.76.08V154.62ZM372,151.13l-1.48-3.28,10.36,1.06Z"/></svg>