<svg xmlns="http://www.w3.org/2000/svg" viewBox="0 0 425.46 425.46"><defs><style>.a{fill:#1e1e1e;}.b{fill:#fff;}</style></defs><title>logo</title><rect class="a" width="425.46" height="425.46"/><polygon class="b" points="285.4 228.85 296.05 228.85 313.13 162.27 302.69 156.63 289.39 118.21 279.06 158.77 286.14 164.95 296.05 169.01 285.4 228.85"/><polygon class="b" points="143.95 228.93 155.33 228.93 157.12 200.72 153.08 147.03 149.33 145.83 141.35 174.14 147.12 200.72 143.95 228.93"/><path class="b" d="M30.79,62V76.09l44-.07,25.15,52.78,25.89,8.42,2.7-21-.24,12.68L124,175.11l3,18-3.33,35.69h8.78l6.67-35.69.49-18.78,20.89-70-11,40.53c.16.08,61.77,20.08,61.77,20.08l42.84-34.63,3.14-19.4-8.59,66.19L262,181.49l-11.48,47.36h11.38L284.18,170l-8.95-6.39,13.83-51.25L306.78,138,292.56,99.26,232.4,39,167,83.24l-17.73-9.58L124.67,93,107,92.35,86.23,52.85,83.06,42.28l-5.69,7.56L40.3,53.09Zm17.52-5.49,10-1-1.42,3.15Z"/><path class="b" d="M75.62,338.47A58.33,58.33,0,0,1,80,315.56,54.19,54.19,0,0,1,91.89,297.8,53,53,0,0,1,110,286.22a65.73,65.73,0,0,1,45.83,0,53,53,0,0,1,18.1,11.57,54.25,54.25,0,0,1,11.92,17.76,62.48,62.48,0,0,1,0,45.83,54.2,54.2,0,0,1-11.92,17.76,53,53,0,0,1-18.1,11.57,65.71,65.71,0,0,1-45.83,0,52.91,52.91,0,0,1-18.1-11.57A54.14,54.14,0,0,1,80,361.39,58.33,58.33,0,0,1,75.62,338.47Zm19.25,0a45.41,45.41,0,0,0,2.63,15.7,36.22,36.22,0,0,0,19.71,21.08,41.37,41.37,0,0,0,31.39,0,36.22,36.22,0,0,0,19.71-21.08,48.07,48.07,0,0,0,0-31.39,36.22,36.22,0,0,0-19.71-21.08,41.37,41.37,0,0,0-31.39,0,36.22,36.22,0,0,0-19.71,21.08A45.43,45.43,0,0,0,94.87,338.47Z"/><path class="b" d="M311.42,366.66q0,7.34.46,13.75t.46,11.69h-17q0-4.35-.23-8.71t-.23-8.94h-.46a31,31,0,0,1-5.16,7.56,37.12,37.12,0,0,1-7.91,6.53,42.24,42.24,0,0,1-10.31,4.58,42.9,42.9,0,0,1-12.37,1.72,47.09,47.09,0,0,1-18.22-3.21,34.14,34.14,0,0,1-12.72-8.94,36.15,36.15,0,0,1-7.45-13.86,62.39,62.39,0,0,1-2.41-17.76V284.85H235.8v64.39q0,13.52,6,21.31t18.56,7.79a34.83,34.83,0,0,0,15-3,26.6,26.6,0,0,0,10.31-8.48,38.07,38.07,0,0,0,6-13.06,67.15,67.15,0,0,0,1.95-16.73V284.85h17.87Z"/><path class="b" d="M404,300H372.37v53.62q0,5.27.23,9.74a20.08,20.08,0,0,0,1.83,7.79,12.27,12.27,0,0,0,4.81,5.27q3.21,1.95,9.17,1.95a36.86,36.86,0,0,0,8-.92,33.52,33.52,0,0,0,7.79-2.75l.69,16.27a40.86,40.86,0,0,1-10.2,3,66.59,66.59,0,0,1-10.66.92q-9.62,0-15.35-2.52a20.81,20.81,0,0,1-8.94-7.1,26.41,26.41,0,0,1-4.24-11.34,100,100,0,0,1-1-15V300H331.13V284.85H354.5V254.37h17.87v30.48H404Z"/></svg>