<svg xmlns="http://www.w3.org/2000/svg" viewBox="0 0 425.46 425.46"><defs><style>.a{fill:#1e1e1e;}.b{fill:#fff;}</style></defs><title>logo</title><rect class="a" width="425.46" height="425.46"/><polygon class="b" points="360.05 335.93 373.88 335.93 396.05 249.47 382.5 242.14 365.22 192.25 351.81 244.93 361 252.95 373.88 258.23 360.05 335.93"/><polygon class="b" points="176.36 336.03 191.14 336.03 193.46 299.4 188.21 229.68 183.35 228.12 172.98 264.88 180.48 299.4 176.36 336.03"/><path class="b" d="M29.41,119.3v18.25l57.11-.09L119.18,206l33.62,10.93,3.51-27.31L156,206.08l-5.49,60.07,3.91,23.44-4.33,46.34h11.4l8.66-46.34.63-24.39L197.9,174.3l-14.3,52.64c.21.11,80.21,26.08,80.21,26.08l55.63-45,4.08-25.19-11.15,86,17.3,5.62-14.91,61.5h14.78l28.93-76.43-11.62-8.3,18-66.55,23,33.36-18.47-50.36L291.22,89.43l-85,57.42-23-12.45-31.91,25.13-22.88-.85-27-51.31L97.29,93.65l-7.39,9.82-48.14,4.22Zm22.75-7.13,12.93-1.32-1.85,4.09Z"/></svg>