<?xml version="1.0" encoding="UTF-8" standalone="no"?>
<!-- Created with Inkscape (http://www.inkscape.org/) -->

<svg
   xmlns:dc="http://purl.org/dc/elements/1.1/"
   xmlns:cc="http://creativecommons.org/ns#"
   xmlns:rdf="http://www.w3.org/1999/02/22-rdf-syntax-ns#"
   xmlns:svg="http://www.w3.org/2000/svg"
   xmlns="http://www.w3.org/2000/svg"
   xmlns:sodipodi="http://sodipodi.sourceforge.net/DTD/sodipodi-0.dtd"
   xmlns:inkscape="http://www.inkscape.org/namespaces/inkscape"
   id="svg3636"
   version="1.1"
   inkscape:version="0.91 r13725"
   xml:space="preserve"
   width="472.07556"
   height="451.43439"
   viewBox="0 0 472.07556 451.43439"
   sodipodi:docname="pyramid-camel.svg"><metadata
     id="metadata3642"><rdf:RDF><cc:Work
         rdf:about=""><dc:format>image/svg+xml</dc:format><dc:type
           rdf:resource="http://purl.org/dc/dcmitype/StillImage" /><dc:title></dc:title><cc:license
           rdf:resource="" /></cc:Work></rdf:RDF></metadata><defs
     id="defs3640"><clipPath
       clipPathUnits="userSpaceOnUse"
       id="clipPath3654"><path
         d="m 372.99,355.659 c 0,-9.248 5.78,-16.233 17.004,-16.233 l 0,0 c 3.95,0 6.984,0.723 8.333,1.396 l 0,0 -1.108,5.733 c -1.444,-0.578 -3.901,-1.059 -6.117,-1.059 l 0,0 c -6.551,0 -10.405,4.093 -10.405,10.596 l 0,0 c 0,7.227 4.528,10.743 10.357,10.743 l 0,0 c 2.601,0 4.672,-0.579 6.165,-1.205 l 0,0 1.494,5.829 c -1.301,0.675 -4.191,1.446 -7.997,1.446 l 0,0 c -9.825,0 -17.726,-6.166 -17.726,-17.246"
         id="path3656"
         inkscape:connector-curvature="0" /></clipPath><linearGradient
       x1="0"
       y1="0"
       x2="1"
       y2="0"
       gradientUnits="userSpaceOnUse"
       gradientTransform="matrix(0,82.708961,82.708961,0,385.85132,327.87955)"
       spreadMethod="pad"
       id="linearGradient3662"><stop
         style="stop-opacity:1;stop-color:#c89c2d"
         offset="0"
         id="stop3664" /><stop
         style="stop-opacity:1;stop-color:#c89c2d"
         offset="0.494624"
         id="stop3666" /><stop
         style="stop-opacity:1;stop-color:#eab957"
         offset="1"
         id="stop3668" /></linearGradient><clipPath
       clipPathUnits="userSpaceOnUse"
       id="clipPath3676"><path
         d="m 421.78,372.374 -9.923,-32.466 7.61,0 2.313,8.334 9.297,0 2.504,-8.334 7.901,0 -10.068,32.466 -9.634,0 z m 2.987,-11.754 c 0.529,1.88 1.011,4.337 1.493,6.263 l 0,0 0.095,0 c 0.483,-1.926 1.06,-4.335 1.638,-6.263 l 0,0 2.023,-6.887 -7.176,0 1.927,6.887 z"
         id="path3678"
         inkscape:connector-curvature="0" /></clipPath><linearGradient
       x1="0"
       y1="0"
       x2="1"
       y2="0"
       gradientUnits="userSpaceOnUse"
       gradientTransform="matrix(0,82.708961,82.708961,0,426.66925,327.87955)"
       spreadMethod="pad"
       id="linearGradient3684"><stop
         style="stop-opacity:1;stop-color:#c89c2d"
         offset="0"
         id="stop3686" /><stop
         style="stop-opacity:1;stop-color:#c89c2d"
         offset="0.494624"
         id="stop3688" /><stop
         style="stop-opacity:1;stop-color:#eab957"
         offset="1"
         id="stop3690" /></linearGradient><clipPath
       clipPathUnits="userSpaceOnUse"
       id="clipPath3698"><path
         d="m 480.155,372.374 -3.468,-10.79 c -1.06,-3.612 -2.168,-7.9 -3.084,-11.658 l 0,0 -0.145,0 c -0.721,3.807 -1.733,7.853 -2.744,11.611 l 0,0 -3.18,10.837 -9.779,0 -2.071,-32.466 6.793,0 0.578,12.331 c 0.241,4.047 0.385,9.055 0.577,13.439 l 0,0 0.097,0 c 0.771,-4.239 1.879,-8.862 2.938,-12.668 l 0,0 3.469,-12.571 5.732,0 3.95,12.669 c 1.252,3.803 2.6,8.429 3.612,12.57 l 0,0 0.144,0 c 0,-4.72 0.145,-9.442 0.289,-13.342 l 0,0 0.483,-12.428 7.176,0 -1.782,32.466 -9.585,0 z"
         id="path3700"
         inkscape:connector-curvature="0" /></clipPath><linearGradient
       x1="0"
       y1="0"
       x2="1"
       y2="0"
       gradientUnits="userSpaceOnUse"
       gradientTransform="matrix(0,82.708961,82.708961,0,473.60349,327.87955)"
       spreadMethod="pad"
       id="linearGradient3706"><stop
         style="stop-opacity:1;stop-color:#c89c2d"
         offset="0"
         id="stop3708" /><stop
         style="stop-opacity:1;stop-color:#c89c2d"
         offset="0.494624"
         id="stop3710" /><stop
         style="stop-opacity:1;stop-color:#eab957"
         offset="1"
         id="stop3712" /></linearGradient><clipPath
       clipPathUnits="userSpaceOnUse"
       id="clipPath3720"><path
         d="m 507.749,372.374 0,-32.466 20.714,0 0,6.021 -13.344,0 0,7.708 11.946,0 0,5.972 -11.946,0 0,6.744 12.669,0 0,6.021 -20.039,0 z"
         id="path3722"
         inkscape:connector-curvature="0" /></clipPath><linearGradient
       x1="0"
       y1="0"
       x2="1"
       y2="0"
       gradientUnits="userSpaceOnUse"
       gradientTransform="matrix(0,82.708961,82.708961,0,518.1059,327.87955)"
       spreadMethod="pad"
       id="linearGradient3728"><stop
         style="stop-opacity:1;stop-color:#c89c2d"
         offset="0"
         id="stop3730" /><stop
         style="stop-opacity:1;stop-color:#c89c2d"
         offset="0.494624"
         id="stop3732" /><stop
         style="stop-opacity:1;stop-color:#eab957"
         offset="1"
         id="stop3734" /></linearGradient><clipPath
       clipPathUnits="userSpaceOnUse"
       id="clipPath3742"><path
         d="m 544.064,372.374 0,-32.466 20.279,0 0,6.165 -12.909,0 0,26.301 -7.37,0 z"
         id="path3744"
         inkscape:connector-curvature="0" /></clipPath><linearGradient
       x1="0"
       y1="0"
       x2="1"
       y2="0"
       gradientUnits="userSpaceOnUse"
       gradientTransform="matrix(0,82.708961,82.708961,0,554.20374,327.87955)"
       spreadMethod="pad"
       id="linearGradient3750"><stop
         style="stop-opacity:1;stop-color:#c89c2d"
         offset="0"
         id="stop3752" /><stop
         style="stop-opacity:1;stop-color:#c89c2d"
         offset="0.494624"
         id="stop3754" /><stop
         style="stop-opacity:1;stop-color:#eab957"
         offset="1"
         id="stop3756" /></linearGradient><clipPath
       clipPathUnits="userSpaceOnUse"
       id="clipPath3764"><path
         d="M 0,960 960,960 960,0 0,0 0,960 Z"
         id="path3766"
         inkscape:connector-curvature="0" /></clipPath><clipPath
       clipPathUnits="userSpaceOnUse"
       id="clipPath3776"><path
         d="m 344.655,455.344 -12.209,-15.883 278.442,0 -12.21,15.883 -254.023,0 z"
         id="path3778"
         inkscape:connector-curvature="0" /></clipPath><linearGradient
       x1="0"
       y1="0"
       x2="1"
       y2="0"
       gradientUnits="userSpaceOnUse"
       gradientTransform="matrix(278.44305,0,0,-278.44305,332.44522,447.40268)"
       spreadMethod="pad"
       id="linearGradient3784"><stop
         style="stop-opacity:1;stop-color:#c89c2d"
         offset="0"
         id="stop3786" /><stop
         style="stop-opacity:1;stop-color:#c89c2d"
         offset="0.494624"
         id="stop3788" /><stop
         style="stop-opacity:1;stop-color:#eab957"
         offset="1"
         id="stop3790" /></linearGradient><clipPath
       clipPathUnits="userSpaceOnUse"
       id="clipPath3798"><path
         d="M 0,960 960,960 960,0 0,0 0,960 Z"
         id="path3800"
         inkscape:connector-curvature="0" /></clipPath><clipPath
       clipPathUnits="userSpaceOnUse"
       id="clipPath3810"><path
         d="m 480.379,567.977 c -5.43,-0.438 -10.462,-2.098 -15.155,-4.895 l 0,0 c -3.27,-1.949 -6.54,-3.972 -10.018,-5.48 l 0,0 c -3.358,-1.455 -6.348,-3.302 -9.044,-5.727 l 0,0 c -2.418,-2.174 -5.198,-3.711 -8.338,-4.62 l 0,0 c -1.775,-0.514 -3.517,-1.147 -5.254,-1.78 l 0,0 c -2.575,-0.94 -4.961,-2.245 -6.784,-4.325 l 0,0 c -2.403,-2.745 -4.671,-5.607 -7.033,-8.389 l 0,0 c -2.533,-2.981 -3.961,-6.395 -4.335,-10.295 l 0,0 c -0.194,-2.033 -0.557,-4.051 -0.882,-6.07 l 0,0 c -0.553,-3.432 -2.363,-6.283 -4.299,-9.058 l 0,0 c -1.542,-2.209 -2.671,-4.568 -3.068,-7.255 l 0,0 c -0.112,-0.755 -0.084,-1.637 -0.477,-2.224 l 0,0 c -0.853,-1.277 -1.87,-2.463 -2.94,-3.571 l 0,0 c -1.265,-1.309 -2.718,-2.438 -3.96,-3.766 l 0,0 c -0.505,-0.541 -0.862,-1.377 -0.952,-2.119 l 0,0 c -0.275,-2.277 -0.316,-4.581 -0.576,-6.86 l 0,0 c -0.683,-5.988 -1.696,-11.923 -3.077,-17.795 l 0,0 c -0.604,-2.569 -1.262,-5.094 -2.925,-7.232 l 0,0 c -0.721,-0.93 -0.954,-2.038 -1.005,-3.192 l 0,0 c -0.081,-1.841 0.645,-2.768 2.462,-2.989 l 0,0 c 3.196,-0.39 6.4,-0.456 9.6,-0.016 l 0,0 c 0.304,0.043 0.588,0.234 0.881,0.357 l 0,0 c -0.18,0.283 -0.294,0.669 -0.551,0.832 l 0,0 c -1.209,0.773 -2.453,1.49 -3.692,2.214 l 0,0 c -0.862,0.506 -1.37,1.251 -1.285,2.243 l 0,0 c 0.094,1.095 0.308,2.183 0.509,3.265 l 0,0 c 0.8,4.322 1.786,8.599 3.209,12.763 l 0,0 c 2.047,5.993 4.883,11.605 8.291,16.929 l 0,0 c 1.443,2.256 2.786,4.625 5.001,6.245 l 0,0 c 1.535,1.124 3.158,2.131 4.783,3.122 l 0,0 c 2.136,1.305 4.314,2.544 6.657,3.919 l 0,0 c 0.475,-1.456 1.066,-2.885 1.402,-4.372 l 0,0 c 0.767,-3.386 0.522,-6.821 0.286,-10.248 l 0,0 c -0.163,-2.4 -0.328,-4.801 -0.431,-7.204 l 0,0 c -0.06,-1.394 0.493,-2.548 1.523,-3.533 l 0,0 c 2.814,-2.691 5.749,-5.268 7.911,-8.568 l 0,0 c 3.09,-4.716 6.342,-9.338 8.751,-14.457 l 0,0 c 0.921,-1.956 2.383,-3.116 4.414,-3.318 l 0,0 c 2.686,-0.267 5.401,-0.242 8.104,-0.331 l 0,0 c 0.214,-0.007 0.435,0.075 0.647,0.135 l 0,0 c 1.088,0.313 1.281,1.021 0.461,1.803 l 0,0 c -0.967,0.923 -2.112,1.563 -3.455,1.631 l 0,0 c -1.725,0.087 -2.97,0.956 -4.006,2.213 l 0,0 c -2.214,2.687 -4.415,5.387 -6.604,8.096 l 0,0 c -2.334,2.888 -4.5,5.891 -5.943,9.341 l 0,0 c -1.666,3.983 -2.311,8.175 -2.369,12.466 l 0,0 c -0.082,6.15 0.894,12.068 4.013,17.478 l 0,0 c 1.913,3.318 4.528,5.9 8.083,7.459 l 0,0 c 0.678,0.298 1.27,0.306 1.976,0.037 l 0,0 c 4.53,-1.728 9.21,-2.459 14.067,-2.093 l 0,0 c 3.416,0.258 6.697,1.077 9.949,2.092 l 0,0 c 0.343,0.107 0.727,0.086 1.109,0.065 l 0,0 c 0.177,-0.009 0.354,-0.019 0.527,-0.015 l 0,0 c -0.08,-0.571 -0.055,-1.183 -0.262,-1.702 l 0,0 c -0.442,-1.114 -0.342,-1.313 0.879,-1.22 l 0,0 c 2.806,0.212 5.505,-0.322 8.149,-1.188 l 0,0 c 0.231,-0.076 0.506,-0.422 0.529,-0.664 l 0,0 c 0.504,-5.371 -0.228,-10.446 -3.322,-15.061 l 0,0 c -1,-1.491 -1.752,-3.21 -2.302,-4.926 l 0,0 c -0.765,-2.387 -0.376,-4.881 -0.117,-7.33 l 0,0 c 0.381,-3.59 0.318,-7.145 -1.111,-10.523 l 0,0 c -1.323,-3.129 -1.946,-6.233 -0.702,-9.569 l 0,0 c 0.3,-0.802 0.044,-1.843 -0.072,-2.759 l 0,0 c -0.114,-0.899 -0.468,-1.768 -0.555,-2.666 l 0,0 c -0.161,-1.65 0.694,-2.797 2.316,-3.102 l 0,0 c 0.943,-0.178 1.921,-0.234 2.881,-0.225 l 0,0 c 2.376,0.02 4.752,0.11 7.127,0.171 l 0,0 c 0.305,0.008 0.61,-10e-4 0.913,0.02 l 0,0 c 1.047,0.075 1.291,0.52 0.664,1.384 l 0,0 c -0.449,0.62 -1.043,1.134 -1.572,1.694 l 0,0 c -0.91,0.965 -1.984,1.335 -3.302,0.993 l 0,0 c -0.79,-0.205 -1.464,0.105 -2.036,0.66 l 0,0 c -0.815,0.79 -0.922,1.736 -0.524,2.736 l 0,0 c 0.537,1.35 0.77,2.729 0.383,4.136 l 0,0 c -0.686,2.489 -0.501,4.975 -0.163,7.486 l 0,0 c 0.497,3.711 1.466,7.223 3.566,10.404 l 0,0 c 0.621,0.944 0.953,2.203 1.047,3.347 l 0,0 c 0.231,2.813 1.006,5.424 2.358,7.876 l 0,0 c 1.958,3.555 3.93,7.103 5.919,10.642 l 0,0 c 0.626,1.114 1.323,2.189 1.906,3.145 l 0,0 c 1.694,-0.678 3.147,-1.37 4.669,-1.841 l 0,0 c 1.802,-0.556 3.052,-1.655 4.049,-3.21 l 0,0 c 0.681,-1.063 1.465,-2.092 2.356,-2.983 l 0,0 c 3.578,-3.574 6.779,-7.44 9.383,-11.78 l 0,0 c 2.734,-4.557 5.241,-9.23 6.778,-14.35 l 0,0 c 0.745,-2.484 1.382,-5 2.037,-7.51 l 0,0 c 0.239,-0.915 0.74,-1.617 1.545,-2.057 l 0,0 c 1.404,-0.768 1.89,-1.928 1.662,-3.466 l 0,0 c -0.132,-0.882 0.235,-1.542 0.949,-2.06 l 0,0 c 1.647,-1.193 3.472,-1.974 5.485,-2.179 l 0,0 c 2.258,-0.228 4.469,0.066 6.519,1.117 l 0,0 c 0.672,0.345 0.754,0.781 0.274,1.333 l 0,0 c -0.957,1.102 -2.091,1.88 -3.645,1.818 l 0,0 c -1.137,-0.045 -2.153,0.358 -2.928,1.149 l 0,0 c -0.729,0.741 -1.443,1.551 -1.94,2.454 l 0,0 c -1.304,2.37 -2.404,4.854 -3.74,7.204 l 0,0 c -1.538,2.702 -2.53,5.55 -3.09,8.604 l 0,0 c -0.682,3.717 -1.468,7.419 -2.328,11.1 l 0,0 c -0.895,3.825 -2.567,7.253 -5.362,10.118 l 0,0 c -1.322,1.356 -2.604,2.832 -3.547,4.46 l 0,0 c -2.173,3.747 -4.126,7.622 -6.187,11.479 l 0,0 c 1.454,1.566 2.596,2.137 4.593,2.316 l 0,0 c 0.882,0.078 1.765,0.145 2.647,0.208 l 0,0 c 5.58,0.392 11.097,1.153 16.497,2.669 l 0,0 c 4.808,1.349 9.143,3.55 12.965,6.788 l 0,0 c 4.71,3.99 7.967,8.958 10.286,14.635 l 0,0 c 0.948,2.317 2.079,4.576 3.312,6.757 l 0,0 c 1.271,2.251 3.036,3.986 5.786,4.409 l 0,0 c 1.386,0.213 2.825,0.397 4.104,0.925 l 0,0 c 2.249,0.93 4.591,1.376 6.951,1.803 l 0,0 c 1.705,0.309 3.063,2.014 2.743,3.716 l 0,0 c -0.152,0.805 -0.619,1.564 -1.018,2.303 l 0,0 c -0.251,0.466 -0.498,0.816 0.174,1.123 l 0,0 c 0.129,0.059 0.273,0.405 0.215,0.509 l 0,0 c -0.647,1.147 -1.203,2.381 -2.596,2.871 l 0,0 c -2.145,0.754 -4.344,1.029 -6.61,0.893 l 0,0 c -2.726,-0.164 -5.389,0.092 -8.012,0.969 l 0,0 c -4.568,1.526 -8.975,1.533 -12.907,-1.783 l 0,0 c -0.175,-0.149 -0.549,-0.142 -0.81,-0.096 l 0,0 c -0.649,0.116 -1.28,0.357 -1.931,0.434 l 0,0 c -0.549,0.065 -0.828,-0.206 -0.592,-0.822 l 0,0 c 0.267,-0.695 0.466,-1.416 0.729,-2.112 l 0,0 c 0.211,-0.56 0.09,-1.027 -0.147,-1.569 l 0,0 c -0.661,-1.516 -1.294,-3.05 -1.809,-4.62 l 0,0 c -0.791,-2.412 -1.374,-4.895 -2.224,-7.284 l 0,0 c -1.988,-5.592 -5.826,-9.266 -11.687,-10.548 l 0,0 c -4.911,-1.073 -9.679,-0.392 -14.235,1.703 l 0,0 c -3.917,1.801 -7.14,4.601 -10.4,7.34 l 0,0 c -2.796,2.348 -5.596,4.685 -8.807,6.474 l 0,0 c -0.628,0.35 -1.205,0.862 -1.68,1.409 l 0,0 c -2.593,2.981 -5.111,6.028 -7.724,8.993 l 0,0 c -2.228,2.528 -5.064,3.572 -8.248,3.572 l 0,0 c -0.414,0 -0.834,-0.017 -1.259,-0.052"
         id="path3812"
         inkscape:connector-curvature="0" /></clipPath><linearGradient
       x1="0"
       y1="0"
       x2="1"
       y2="0"
       gradientUnits="userSpaceOnUse"
       gradientTransform="matrix(61.091423,33.163914,33.163914,-61.091423,485.57272,498.41696)"
       spreadMethod="pad"
       id="linearGradient3818"><stop
         style="stop-opacity:1;stop-color:#c89c2d"
         offset="0"
         id="stop3820" /><stop
         style="stop-opacity:1;stop-color:#c89c2d"
         offset="0.494624"
         id="stop3822" /><stop
         style="stop-opacity:1;stop-color:#eab957"
         offset="1"
         id="stop3824" /></linearGradient><clipPath
       clipPathUnits="userSpaceOnUse"
       id="clipPath3832"><path
         d="M 0,960 960,960 960,0 0,0 0,960 Z"
         id="path3834"
         inkscape:connector-curvature="0" /></clipPath></defs><sodipodi:namedview
     pagecolor="#ffffff"
     bordercolor="#666666"
     borderopacity="1"
     objecttolerance="10"
     gridtolerance="10"
     guidetolerance="10"
     inkscape:pageopacity="0"
     inkscape:pageshadow="2"
     inkscape:window-width="1067"
     inkscape:window-height="715"
     id="namedview3638"
     showgrid="false"
     fit-margin-top="50"
     fit-margin-left="50"
     fit-margin-right="50"
     fit-margin-bottom="50"
     inkscape:zoom="0.63"
     inkscape:cx="421.90164"
     inkscape:cy="225.7175"
     inkscape:window-x="0"
     inkscape:window-y="0"
     inkscape:window-maximized="0"
     inkscape:current-layer="g3644" /><g
     id="g3644"
     inkscape:groupmode="layer"
     inkscape:label="Untitled-7"
     transform="matrix(1.25,0,0,-1.25,-351.90788,825.71687)"><g
       id="g6068"
       transform="matrix(0.93529387,0,0,0.94796586,30.434948,19.851635)"><g
         id="text3646"
         style="font-variant:normal;font-weight:bold;font-stretch:normal;font-size:72.6190033px;font-family:'Myriad Pro';-inkscape-font-specification:MyriadPro-Bold;writing-mode:lr-tb;fill:#000000;fill-opacity:1;fill-rule:nonzero;stroke:none"
         transform="matrix(1,0,0,-1,320.6753,382.54)"><path
           id="path3992"
           d="m 55.528007,0 -14.077023,0 -3.652225,-10.673008 -19.573091,0 L 14.573443,0 0.85100394,0 20.353178,-52.797703 l 15.672656,0 L 55.528007,0 Z m -21.026889,-20.353178 -6.488905,-18.934837 -6.488905,18.934837 12.97781,0 z"
           inkscape:connector-curvature="0" /><path
           id="path3994"
           d="m 103.76319,-36.132209 q 0,3.54585 -1.24105,6.949865 -1.24104,3.368558 -3.545847,5.67336 -3.155806,3.120348 -7.056241,4.71598 -3.864976,1.595633 -9.644711,1.595633 l -8.474581,0 0,17.197371 -13.616063,0 0,-52.797703 22.40977,0 q 5.035107,0 8.474581,0.886462 3.474933,0.851004 6.13432,2.588471 3.191262,2.092051 4.857812,5.354233 1.70201,3.262182 1.70201,7.836328 z m -14.077023,0.319126 q 0,-2.233885 -1.205589,-3.829517 -1.205589,-1.631091 -2.801221,-2.269344 -2.12751,-0.851004 -4.148645,-0.921921 -2.021134,-0.106376 -5.389691,-0.106376 l -2.340261,0 0,15.81449 3.900435,0 q 3.474932,0 5.708818,-0.425502 2.269344,-0.425502 3.794059,-1.702008 1.311964,-1.134672 1.8793,-2.694845 0.602795,-1.595633 0.602795,-3.864977 z"
           inkscape:connector-curvature="0" /><path
           id="path3996"
           d="m 152.61961,0 -14.07702,0 -3.65223,-10.673008 -19.57309,0 L 111.66505,0 97.94261,0 l 19.50217,-52.797703 15.67266,0 L 152.61961,0 Z m -21.02689,-20.353178 -6.4889,-18.934837 -6.48891,18.934837 12.97781,0 z"
           inkscape:connector-curvature="0" /><path
           id="path3998"
           d="m 179.32439,1.0282964 q -5.88611,0 -10.88576,-1.73746635 -4.96419,-1.73746635 -8.54549,-5.17694065 -3.58131,-3.4394743 -5.56699,-8.5809564 -1.95022,-5.141482 -1.95022,-11.878597 0,-6.276154 1.8793,-11.382178 1.87931,-5.106023 5.46061,-8.758248 3.43948,-3.510392 8.51004,-5.425151 5.10603,-1.914759 11.13397,-1.914759 3.3331,0 5.99249,0.390044 2.69484,0.354585 4.96419,0.957379 2.37572,0.673712 4.29048,1.524716 1.95021,0.815545 3.40401,1.524715 l 0,12.800518 -1.56017,0 q -0.99284,-0.851004 -2.51756,-2.021134 -1.48925,-1.170131 -3.40401,-2.304803 -1.95022,-1.134672 -4.21956,-1.914759 -2.26935,-0.780087 -4.85782,-0.780087 -2.87214,0 -5.46061,0.921921 -2.58847,0.886463 -4.78689,2.978514 -2.09205,2.021134 -3.40402,5.354233 -1.27651,3.333099 -1.27651,8.084538 0,4.964189 1.38289,8.297288 1.41834,3.333099 3.54585,5.247858 2.16296,1.950217 4.82235,2.8012211 2.65939,0.8155455 5.24786,0.8155455 2.48209,0 4.89327,-0.7446285 2.44664,-0.7446281 4.50323,-2.0211341 1.73747,-1.028297 3.22672,-2.198427 1.48926,-1.170131 2.44664,-2.021134 l 1.41834,0 0,12.6232247 q -1.98567,0.8864625 -3.79406,1.6665494 -1.80838,0.780087 -3.79406,1.34742293 -2.58847,0.74462845 -4.85781,1.13467193 -2.26935,0.39004344 -6.2407,0.39004344 z"
           inkscape:connector-curvature="0" /><path
           id="path4000"
           d="m 251.81574,0 -13.61606,0 0,-23.260774 -20.10497,0 0,23.260774 -13.61606,0 0,-52.797703 13.61606,0 0,19.324881 20.10497,0 0,-19.324881 13.61606,0 0,52.797703 z"
           inkscape:connector-curvature="0" /><path
           id="path4002"
           d="m 298.51146,0 -38.1888,0 0,-52.797703 38.1888,0 0,10.212047 -24.64366,0 0,9.112834 22.87073,0 0,10.212048 -22.87073,0 0,13.048727 24.64366,0 0,10.212047 z"
           inkscape:connector-curvature="0" /></g></g><g
       id="g6040"
       transform="translate(-0.6628836,0)"><g
         id="g6013"><g
           id="g3650"
           transform="matrix(1.2129223,0,0,1.1947788,-79.417884,-66.112995)"><g
             id="g3652"
             clip-path="url(#clipPath3654)"><g
               id="g3658"><g
                 id="g3660"><path
                   d="m 372.99,355.659 c 0,-9.248 5.78,-16.233 17.004,-16.233 l 0,0 c 3.95,0 6.984,0.723 8.333,1.396 l 0,0 -1.108,5.733 c -1.444,-0.578 -3.901,-1.059 -6.117,-1.059 l 0,0 c -6.551,0 -10.405,4.093 -10.405,10.596 l 0,0 c 0,7.227 4.528,10.743 10.357,10.743 l 0,0 c 2.601,0 4.672,-0.579 6.165,-1.205 l 0,0 1.494,5.829 c -1.301,0.675 -4.191,1.446 -7.997,1.446 l 0,0 c -9.825,0 -17.726,-6.166 -17.726,-17.246"
                   style="fill:url(#linearGradient3662);stroke:none"
                   id="path3670"
                   inkscape:connector-curvature="0" /></g></g></g></g><g
           id="g3672"
           transform="matrix(1.2320405,0,0,1.1947788,-95.567507,-66.112995)"><g
             id="g3674"
             clip-path="url(#clipPath3676)"><g
               id="g3680"><g
                 id="g3682"><path
                   d="m 421.78,372.374 -9.923,-32.466 7.61,0 2.313,8.334 9.297,0 2.504,-8.334 7.901,0 -10.068,32.466 -9.634,0 z m 2.987,-11.754 c 0.529,1.88 1.011,4.337 1.493,6.263 l 0,0 0.095,0 c 0.483,-1.926 1.06,-4.335 1.638,-6.263 l 0,0 2.023,-6.887 -7.176,0 1.927,6.887 z"
                   style="fill:url(#linearGradient3684);stroke:none"
                   id="path3692"
                   inkscape:connector-curvature="0" /></g></g></g></g><g
           id="g3694"
           transform="matrix(1.232033,0,0,1.1947788,-105.73374,-66.112995)"><g
             id="g3696"
             clip-path="url(#clipPath3698)"><g
               id="g3702"><g
                 id="g3704"><path
                   d="m 480.155,372.374 -3.468,-10.79 c -1.06,-3.612 -2.168,-7.9 -3.084,-11.658 l 0,0 -0.145,0 c -0.721,3.807 -1.733,7.853 -2.744,11.611 l 0,0 -3.18,10.837 -9.779,0 -2.071,-32.466 6.793,0 0.578,12.331 c 0.241,4.047 0.385,9.055 0.577,13.439 l 0,0 0.097,0 c 0.771,-4.239 1.879,-8.862 2.938,-12.668 l 0,0 3.469,-12.571 5.732,0 3.95,12.669 c 1.252,3.803 2.6,8.429 3.612,12.57 l 0,0 0.144,0 c 0,-4.72 0.145,-9.442 0.289,-13.342 l 0,0 0.483,-12.428 7.176,0 -1.782,32.466 -9.585,0 z"
                   style="fill:url(#linearGradient3706);stroke:none"
                   id="path3714"
                   inkscape:connector-curvature="0" /></g></g></g></g><g
           id="g3716"
           transform="matrix(1.2320556,0,0,1.1947788,-117.82601,-66.112995)"><g
             id="g3718"
             clip-path="url(#clipPath3720)"><g
               id="g3724"><g
                 id="g3726"><path
                   d="m 507.749,372.374 0,-32.466 20.714,0 0,6.021 -13.344,0 0,7.708 11.946,0 0,5.972 -11.946,0 0,6.744 12.669,0 0,6.021 -20.039,0 z"
                   style="fill:url(#linearGradient3728);stroke:none"
                   id="path3736"
                   inkscape:connector-curvature="0" /></g></g></g></g><g
           id="g3738"
           transform="matrix(1.2320529,0,0,1.1947788,-126.25161,-66.112995)"><g
             id="g3740"
             clip-path="url(#clipPath3742)"><g
               id="g3746"><g
                 id="g3748"><path
                   d="m 544.064,372.374 0,-32.466 20.279,0 0,6.165 -12.909,0 0,26.301 -7.37,0 z"
                   style="fill:url(#linearGradient3750);stroke:none"
                   id="path3758"
                   inkscape:connector-curvature="0" /></g></g></g></g></g></g><g
       id="g3760"><g
         id="g3762"
         clip-path="url(#clipPath3764)"><g
           id="g3768"
           transform="translate(471.6667,620.5735)"><path
             d="m 0,0 -127.012,-165.229 254.024,0 L 0,0 Z"
             style="fill:#000000;fill-opacity:1;fill-rule:nonzero;stroke:none"
             id="path3770"
             inkscape:connector-curvature="0" /></g></g></g><g
       id="g3772"><g
         id="g3774"
         clip-path="url(#clipPath3776)"><g
           id="g3780"><g
             id="g3782"><path
               d="m 344.655,455.344 -12.209,-15.883 278.442,0 -12.21,15.883 -254.023,0 z"
               style="fill:url(#linearGradient3784);stroke:none"
               id="path3792"
               inkscape:connector-curvature="0" /></g></g></g></g><g
       id="g3794"><g
         id="g3796"
         clip-path="url(#clipPath3798)"><g
           id="g3802"
           transform="translate(482.6703,447.8546)"><path
             d="m 0,0 c -1.141,0 -2.152,0.085 -3.09,0.261 -2.707,0.51 -4.282,2.615 -4.015,5.365 0.062,0.634 0.211,1.21 0.342,1.718 0.094,0.366 0.183,0.713 0.221,1.008 0.024,0.188 0.053,0.381 0.082,0.575 0.057,0.375 0.152,1.002 0.101,1.203 -1.662,4.453 -0.374,8.469 0.74,11.102 1.085,2.567 1.381,5.492 0.957,9.486 l -0.077,0.713 c -0.255,2.296 -0.544,4.899 0.282,7.477 0.667,2.084 1.527,3.919 2.557,5.454 2.415,3.602 3.391,7.697 3.046,12.828 -1.996,0.593 -3.736,0.87 -5.42,0.87 -0.36,0 -0.721,-0.013 -1.084,-0.04 -0.229,-0.018 -0.43,-0.027 -0.604,-0.027 -1.066,0 -1.857,0.369 -2.351,1.098 -0.318,0.468 -0.423,0.949 -0.419,1.399 -3.358,-0.956 -6.128,-1.486 -8.829,-1.69 -0.863,-0.065 -1.735,-0.098 -2.593,-0.098 -4.172,0 -8.337,0.781 -12.378,2.323 -0.142,0.054 -0.203,0.057 -0.213,0.057 -0.024,0 -0.082,-0.014 -0.174,-0.055 -2.983,-1.309 -5.309,-3.464 -7.111,-6.587 -2.635,-4.571 -3.821,-9.783 -3.732,-16.404 0.059,-4.458 0.781,-8.281 2.206,-11.687 1.417,-3.387 3.646,-6.365 5.64,-8.832 2.185,-2.703 4.381,-5.398 6.592,-8.081 0.799,-0.97 1.545,-1.405 2.494,-1.453 1.739,-0.087 3.353,-0.829 4.796,-2.207 1.292,-1.234 1.228,-2.462 1.075,-3.085 -0.154,-0.625 -0.67,-1.748 -2.403,-2.246 -0.339,-0.102 -0.722,-0.217 -1.2,-0.217 -0.836,0.025 -1.579,0.041 -2.322,0.057 -1.963,0.041 -3.993,0.084 -6.016,0.285 -2.731,0.271 -4.84,1.83 -6.101,4.509 -1.955,4.156 -4.571,8.101 -7.099,11.916 -0.505,0.761 -1.009,1.522 -1.509,2.285 -1.736,2.649 -4.028,4.815 -6.454,7.109 l -1.152,1.092 c -1.523,1.457 -2.253,3.185 -2.169,5.138 0.104,2.412 0.27,4.849 0.431,7.205 l 0.011,0.15 c 0.229,3.337 0.445,6.49 -0.247,9.544 -0.13,0.574 -0.307,1.15 -0.506,1.742 -1.518,-0.883 -2.978,-1.732 -4.419,-2.613 -1.603,-0.978 -3.164,-1.946 -4.638,-3.024 -1.641,-1.201 -2.776,-2.999 -3.978,-4.902 l -0.495,-0.782 c -3.529,-5.514 -6.169,-10.904 -8.073,-16.477 -1.227,-3.59 -2.222,-7.552 -3.132,-12.468 l -0.054,-0.287 c -0.18,-0.966 -0.35,-1.879 -0.427,-2.775 -0.004,-0.047 0.046,-0.133 0.257,-0.256 l 0.52,-0.304 c 1.064,-0.623 2.166,-1.267 3.24,-1.952 0.659,-0.422 0.97,-1.036 1.136,-1.365 l 0.062,-0.121 1.2,-2.066 -2.169,-0.98 c -0.05,-0.021 -0.1,-0.047 -0.15,-0.072 -0.28,-0.139 -0.703,-0.35 -1.251,-0.426 -1.561,-0.215 -3.192,-0.324 -4.851,-0.324 -1.684,0 -3.463,0.113 -5.287,0.335 -2.904,0.354 -4.432,2.187 -4.301,5.16 0.05,1.15 0.255,2.856 1.444,4.386 1.365,1.756 1.935,3.859 2.539,6.426 1.329,5.651 2.35,11.556 3.035,17.554 0.12,1.053 0.191,2.106 0.266,3.22 0.08,1.19 0.163,2.421 0.311,3.652 0.147,1.217 0.708,2.45 1.501,3.298 0.714,0.764 1.472,1.449 2.205,2.111 0.632,0.572 1.23,1.112 1.779,1.681 1.122,1.161 2.007,2.234 2.705,3.279 0.006,0.049 0.043,0.426 0.068,0.677 0.022,0.234 0.046,0.466 0.079,0.69 0.409,2.769 1.528,5.434 3.422,8.147 1.729,2.479 3.459,5.153 3.949,8.193 l 0.178,1.085 c 0.274,1.672 0.534,3.251 0.687,4.852 0.414,4.316 2.036,8.168 4.822,11.451 0.956,1.125 1.896,2.263 2.836,3.402 1.364,1.652 2.775,3.361 4.22,5.01 1.84,2.102 4.34,3.709 7.641,4.912 1.647,0.601 3.515,1.282 5.389,1.825 2.825,0.818 5.356,2.22 7.52,4.167 2.78,2.5 5.924,4.492 9.611,6.09 2.988,1.295 5.915,3.046 8.745,4.739 l 1.034,0.619 c 5.007,2.983 10.41,4.728 16.058,5.184 0.483,0.039 0.958,0.059 1.427,0.059 4.012,0 7.316,-1.441 9.821,-4.284 1.466,-1.663 2.903,-3.352 4.339,-5.041 1.127,-1.324 2.253,-2.649 3.395,-3.961 0.359,-0.413 0.756,-0.751 1.118,-0.953 3.435,-1.914 6.463,-4.457 9.135,-6.701 l 0.543,-0.457 c 3.056,-2.571 5.942,-5 9.385,-6.583 2.906,-1.337 5.852,-2.015 8.756,-2.015 1.379,10e-4 2.777,0.154 4.157,0.455 5.025,1.099 8.349,4.109 10.161,9.204 0.455,1.28 0.828,2.583 1.224,3.962 0.314,1.095 0.628,2.191 0.982,3.272 0.577,1.758 1.274,3.415 1.88,4.804 0.02,0.045 0.039,0.088 0.056,0.131 -0.118,0.321 -0.225,0.647 -0.332,0.973 -0.109,0.332 -0.217,0.663 -0.342,0.989 -0.486,1.268 -0.073,2.163 0.216,2.584 0.478,0.695 1.273,1.093 2.181,1.093 0.125,0 0.257,-0.007 0.397,-0.023 0.516,-0.061 0.977,-0.184 1.384,-0.292 0.104,-0.028 0.208,-0.056 0.312,-0.082 2.438,1.872 5.213,2.82 8.257,2.82 1.909,0 3.908,-0.358 6.113,-1.095 1.827,-0.611 3.733,-0.908 5.827,-0.908 0.463,0 0.928,0.015 1.395,0.043 0.412,0.025 0.823,0.038 1.232,0.038 2.14,0 4.225,-0.352 6.197,-1.046 2.008,-0.705 2.896,-2.314 3.544,-3.488 l 0.183,-0.33 c 0.314,-0.556 0.368,-1.226 0.153,-1.887 -0.047,-0.146 -0.105,-0.285 -0.173,-0.418 0.357,-0.66 0.719,-1.401 0.883,-2.27 0.247,-1.31 -0.055,-2.67 -0.851,-3.828 -0.845,-1.227 -2.149,-2.079 -3.577,-2.337 -2.486,-0.45 -4.545,-0.859 -6.524,-1.678 -1.396,-0.577 -2.888,-0.802 -4.204,-1.002 l -0.382,-0.058 C 84.006,101.625 82.686,100.586 81.526,98.532 80.231,96.239 79.186,94.107 78.33,92.013 75.71,85.601 72.154,80.55 67.459,76.572 63.539,73.251 58.912,70.827 53.706,69.366 48.667,67.952 43.292,67.081 36.79,66.624 c -0.871,-0.061 -1.74,-0.128 -2.608,-0.205 -0.948,-0.085 -1.562,-0.255 -2.17,-0.677 0.339,-0.641 0.676,-1.283 1.013,-1.923 1.403,-2.671 2.854,-5.432 4.376,-8.058 0.935,-1.612 2.294,-3.082 3.236,-4.048 2.925,-2.999 4.855,-6.63 5.901,-11.103 0.921,-3.94 1.69,-7.604 2.349,-11.2 0.535,-2.916 1.467,-5.515 2.85,-7.946 0.745,-1.311 1.418,-2.658 2.068,-3.961 0.542,-1.085 1.103,-2.207 1.687,-3.269 0.409,-0.743 1.069,-1.457 1.599,-1.996 0.346,-0.354 0.759,-0.525 1.262,-0.525 l 0.345,0.007 c 1.914,0 3.567,-0.831 5.053,-2.542 C 64.6,8.2 64.639,7.272 64.522,6.666 64.404,6.058 64.019,5.206 62.851,4.607 61.013,3.665 58.972,3.187 56.784,3.187 c -0.527,0 -1.072,0.028 -1.619,0.084 -2.283,0.23 -4.471,1.094 -6.501,2.565 -1.397,1.011 -2.034,2.455 -1.794,4.065 0.117,0.78 -0.054,1.024 -0.594,1.319 -1.288,0.705 -2.176,1.869 -2.567,3.366 l -0.266,1.024 c -0.55,2.116 -1.119,4.304 -1.751,6.414 -1.549,5.162 -4.189,9.91 -6.567,13.874 -2.336,3.893 -5.302,7.614 -9.067,11.376 -0.93,0.93 -1.819,2.052 -2.64,3.334 -0.797,1.244 -1.693,1.966 -2.904,2.34 -1.101,0.34 -2.128,0.769 -3.207,1.224 C 16.996,53.67 16.681,53.149 16.383,52.618 14.398,49.085 12.429,45.542 10.473,41.993 9.267,39.802 8.578,37.5 8.368,34.955 8.289,34.003 8.005,32.178 6.982,30.627 5.303,28.083 4.275,25.055 3.743,21.096 3.404,18.568 3.292,16.47 3.85,14.447 4.324,12.728 4.175,10.94 3.394,8.978 3.272,8.673 3.299,8.647 3.429,8.521 3.488,8.465 3.534,8.428 3.565,8.406 4.029,8.519 4.489,8.577 4.934,8.577 5.949,8.577 7.45,8.269 8.833,6.802 8.979,6.648 9.132,6.496 9.285,6.344 9.699,5.933 10.167,5.467 10.577,4.901 11.556,3.552 11.392,2.474 11.081,1.807 10.769,1.139 10.046,0.317 8.366,0.197 8.128,0.18 7.889,0.177 7.65,0.176 L 7.361,0.172 5.266,0.114 C 3.576,0.064 1.886,0.015 0.197,0.001 L 0,0 Z"
             style="fill:#000000;fill-opacity:1;fill-rule:nonzero;stroke:none"
             id="path3804"
             inkscape:connector-curvature="0" /></g></g></g><g
       id="g3806"><g
         id="g3808"
         clip-path="url(#clipPath3810)"><g
           id="g3814"><g
             id="g3816"><path
               d="m 480.379,567.977 c -5.43,-0.438 -10.462,-2.098 -15.155,-4.895 l 0,0 c -3.27,-1.949 -6.54,-3.972 -10.018,-5.48 l 0,0 c -3.358,-1.455 -6.348,-3.302 -9.044,-5.727 l 0,0 c -2.418,-2.174 -5.198,-3.711 -8.338,-4.62 l 0,0 c -1.775,-0.514 -3.517,-1.147 -5.254,-1.78 l 0,0 c -2.575,-0.94 -4.961,-2.245 -6.784,-4.325 l 0,0 c -2.403,-2.745 -4.671,-5.607 -7.033,-8.389 l 0,0 c -2.533,-2.981 -3.961,-6.395 -4.335,-10.295 l 0,0 c -0.194,-2.033 -0.557,-4.051 -0.882,-6.07 l 0,0 c -0.553,-3.432 -2.363,-6.283 -4.299,-9.058 l 0,0 c -1.542,-2.209 -2.671,-4.568 -3.068,-7.255 l 0,0 c -0.112,-0.755 -0.084,-1.637 -0.477,-2.224 l 0,0 c -0.853,-1.277 -1.87,-2.463 -2.94,-3.571 l 0,0 c -1.265,-1.309 -2.718,-2.438 -3.96,-3.766 l 0,0 c -0.505,-0.541 -0.862,-1.377 -0.952,-2.119 l 0,0 c -0.275,-2.277 -0.316,-4.581 -0.576,-6.86 l 0,0 c -0.683,-5.988 -1.696,-11.923 -3.077,-17.795 l 0,0 c -0.604,-2.569 -1.262,-5.094 -2.925,-7.232 l 0,0 c -0.721,-0.93 -0.954,-2.038 -1.005,-3.192 l 0,0 c -0.081,-1.841 0.645,-2.768 2.462,-2.989 l 0,0 c 3.196,-0.39 6.4,-0.456 9.6,-0.016 l 0,0 c 0.304,0.043 0.588,0.234 0.881,0.357 l 0,0 c -0.18,0.283 -0.294,0.669 -0.551,0.832 l 0,0 c -1.209,0.773 -2.453,1.49 -3.692,2.214 l 0,0 c -0.862,0.506 -1.37,1.251 -1.285,2.243 l 0,0 c 0.094,1.095 0.308,2.183 0.509,3.265 l 0,0 c 0.8,4.322 1.786,8.599 3.209,12.763 l 0,0 c 2.047,5.993 4.883,11.605 8.291,16.929 l 0,0 c 1.443,2.256 2.786,4.625 5.001,6.245 l 0,0 c 1.535,1.124 3.158,2.131 4.783,3.122 l 0,0 c 2.136,1.305 4.314,2.544 6.657,3.919 l 0,0 c 0.475,-1.456 1.066,-2.885 1.402,-4.372 l 0,0 c 0.767,-3.386 0.522,-6.821 0.286,-10.248 l 0,0 c -0.163,-2.4 -0.328,-4.801 -0.431,-7.204 l 0,0 c -0.06,-1.394 0.493,-2.548 1.523,-3.533 l 0,0 c 2.814,-2.691 5.749,-5.268 7.911,-8.568 l 0,0 c 3.09,-4.716 6.342,-9.338 8.751,-14.457 l 0,0 c 0.921,-1.956 2.383,-3.116 4.414,-3.318 l 0,0 c 2.686,-0.267 5.401,-0.242 8.104,-0.331 l 0,0 c 0.214,-0.007 0.435,0.075 0.647,0.135 l 0,0 c 1.088,0.313 1.281,1.021 0.461,1.803 l 0,0 c -0.967,0.923 -2.112,1.563 -3.455,1.631 l 0,0 c -1.725,0.087 -2.97,0.956 -4.006,2.213 l 0,0 c -2.214,2.687 -4.415,5.387 -6.604,8.096 l 0,0 c -2.334,2.888 -4.5,5.891 -5.943,9.341 l 0,0 c -1.666,3.983 -2.311,8.175 -2.369,12.466 l 0,0 c -0.082,6.15 0.894,12.068 4.013,17.478 l 0,0 c 1.913,3.318 4.528,5.9 8.083,7.459 l 0,0 c 0.678,0.298 1.27,0.306 1.976,0.037 l 0,0 c 4.53,-1.728 9.21,-2.459 14.067,-2.093 l 0,0 c 3.416,0.258 6.697,1.077 9.949,2.092 l 0,0 c 0.343,0.107 0.727,0.086 1.109,0.065 l 0,0 c 0.177,-0.009 0.354,-0.019 0.527,-0.015 l 0,0 c -0.08,-0.571 -0.055,-1.183 -0.262,-1.702 l 0,0 c -0.442,-1.114 -0.342,-1.313 0.879,-1.22 l 0,0 c 2.806,0.212 5.505,-0.322 8.149,-1.188 l 0,0 c 0.231,-0.076 0.506,-0.422 0.529,-0.664 l 0,0 c 0.504,-5.371 -0.228,-10.446 -3.322,-15.061 l 0,0 c -1,-1.491 -1.752,-3.21 -2.302,-4.926 l 0,0 c -0.765,-2.387 -0.376,-4.881 -0.117,-7.33 l 0,0 c 0.381,-3.59 0.318,-7.145 -1.111,-10.523 l 0,0 c -1.323,-3.129 -1.946,-6.233 -0.702,-9.569 l 0,0 c 0.3,-0.802 0.044,-1.843 -0.072,-2.759 l 0,0 c -0.114,-0.899 -0.468,-1.768 -0.555,-2.666 l 0,0 c -0.161,-1.65 0.694,-2.797 2.316,-3.102 l 0,0 c 0.943,-0.178 1.921,-0.234 2.881,-0.225 l 0,0 c 2.376,0.02 4.752,0.11 7.127,0.171 l 0,0 c 0.305,0.008 0.61,-10e-4 0.913,0.02 l 0,0 c 1.047,0.075 1.291,0.52 0.664,1.384 l 0,0 c -0.449,0.62 -1.043,1.134 -1.572,1.694 l 0,0 c -0.91,0.965 -1.984,1.335 -3.302,0.993 l 0,0 c -0.79,-0.205 -1.464,0.105 -2.036,0.66 l 0,0 c -0.815,0.79 -0.922,1.736 -0.524,2.736 l 0,0 c 0.537,1.35 0.77,2.729 0.383,4.136 l 0,0 c -0.686,2.489 -0.501,4.975 -0.163,7.486 l 0,0 c 0.497,3.711 1.466,7.223 3.566,10.404 l 0,0 c 0.621,0.944 0.953,2.203 1.047,3.347 l 0,0 c 0.231,2.813 1.006,5.424 2.358,7.876 l 0,0 c 1.958,3.555 3.93,7.103 5.919,10.642 l 0,0 c 0.626,1.114 1.323,2.189 1.906,3.145 l 0,0 c 1.694,-0.678 3.147,-1.37 4.669,-1.841 l 0,0 c 1.802,-0.556 3.052,-1.655 4.049,-3.21 l 0,0 c 0.681,-1.063 1.465,-2.092 2.356,-2.983 l 0,0 c 3.578,-3.574 6.779,-7.44 9.383,-11.78 l 0,0 c 2.734,-4.557 5.241,-9.23 6.778,-14.35 l 0,0 c 0.745,-2.484 1.382,-5 2.037,-7.51 l 0,0 c 0.239,-0.915 0.74,-1.617 1.545,-2.057 l 0,0 c 1.404,-0.768 1.89,-1.928 1.662,-3.466 l 0,0 c -0.132,-0.882 0.235,-1.542 0.949,-2.06 l 0,0 c 1.647,-1.193 3.472,-1.974 5.485,-2.179 l 0,0 c 2.258,-0.228 4.469,0.066 6.519,1.117 l 0,0 c 0.672,0.345 0.754,0.781 0.274,1.333 l 0,0 c -0.957,1.102 -2.091,1.88 -3.645,1.818 l 0,0 c -1.137,-0.045 -2.153,0.358 -2.928,1.149 l 0,0 c -0.729,0.741 -1.443,1.551 -1.94,2.454 l 0,0 c -1.304,2.37 -2.404,4.854 -3.74,7.204 l 0,0 c -1.538,2.702 -2.53,5.55 -3.09,8.604 l 0,0 c -0.682,3.717 -1.468,7.419 -2.328,11.1 l 0,0 c -0.895,3.825 -2.567,7.253 -5.362,10.118 l 0,0 c -1.322,1.356 -2.604,2.832 -3.547,4.46 l 0,0 c -2.173,3.747 -4.126,7.622 -6.187,11.479 l 0,0 c 1.454,1.566 2.596,2.137 4.593,2.316 l 0,0 c 0.882,0.078 1.765,0.145 2.647,0.208 l 0,0 c 5.58,0.392 11.097,1.153 16.497,2.669 l 0,0 c 4.808,1.349 9.143,3.55 12.965,6.788 l 0,0 c 4.71,3.99 7.967,8.958 10.286,14.635 l 0,0 c 0.948,2.317 2.079,4.576 3.312,6.757 l 0,0 c 1.271,2.251 3.036,3.986 5.786,4.409 l 0,0 c 1.386,0.213 2.825,0.397 4.104,0.925 l 0,0 c 2.249,0.93 4.591,1.376 6.951,1.803 l 0,0 c 1.705,0.309 3.063,2.014 2.743,3.716 l 0,0 c -0.152,0.805 -0.619,1.564 -1.018,2.303 l 0,0 c -0.251,0.466 -0.498,0.816 0.174,1.123 l 0,0 c 0.129,0.059 0.273,0.405 0.215,0.509 l 0,0 c -0.647,1.147 -1.203,2.381 -2.596,2.871 l 0,0 c -2.145,0.754 -4.344,1.029 -6.61,0.893 l 0,0 c -2.726,-0.164 -5.389,0.092 -8.012,0.969 l 0,0 c -4.568,1.526 -8.975,1.533 -12.907,-1.783 l 0,0 c -0.175,-0.149 -0.549,-0.142 -0.81,-0.096 l 0,0 c -0.649,0.116 -1.28,0.357 -1.931,0.434 l 0,0 c -0.549,0.065 -0.828,-0.206 -0.592,-0.822 l 0,0 c 0.267,-0.695 0.466,-1.416 0.729,-2.112 l 0,0 c 0.211,-0.56 0.09,-1.027 -0.147,-1.569 l 0,0 c -0.661,-1.516 -1.294,-3.05 -1.809,-4.62 l 0,0 c -0.791,-2.412 -1.374,-4.895 -2.224,-7.284 l 0,0 c -1.988,-5.592 -5.826,-9.266 -11.687,-10.548 l 0,0 c -4.911,-1.073 -9.679,-0.392 -14.235,1.703 l 0,0 c -3.917,1.801 -7.14,4.601 -10.4,7.34 l 0,0 c -2.796,2.348 -5.596,4.685 -8.807,6.474 l 0,0 c -0.628,0.35 -1.205,0.862 -1.68,1.409 l 0,0 c -2.593,2.981 -5.111,6.028 -7.724,8.993 l 0,0 c -2.228,2.528 -5.064,3.572 -8.248,3.572 l 0,0 c -0.414,0 -0.834,-0.017 -1.259,-0.052"
               style="fill:url(#linearGradient3818);stroke:none"
               id="path3826"
               inkscape:connector-curvature="0" /></g></g></g></g><g
       id="g3828"><g
         id="g3830"
         clip-path="url(#clipPath3832)"><g
           id="g3836"
           transform="translate(487.725,506.4868)"><path
             d="m 0,0 c 0,0 -0.003,-0.718 -0.078,-1.972 -0.091,-1.252 -0.196,-3.047 -0.512,-5.183 -0.159,-1.068 -0.347,-2.224 -0.604,-3.439 -0.267,-1.213 -0.563,-2.495 -1.041,-3.785 -0.486,-1.295 -1.098,-2.562 -1.839,-3.8 -0.706,-1.241 -1.666,-2.382 -1.805,-3.598 -0.077,-0.617 0.008,-1.287 0.159,-1.954 0.06,-0.333 0.168,-0.668 0.252,-1.002 l 0.263,-1.044 c 0.317,-1.459 0.404,-2.847 0.448,-4.216 0.077,-2.726 -0.251,-5.256 -0.68,-7.381 -0.442,-2.129 -1.129,-3.823 -1.703,-4.944 -0.292,-0.562 -0.559,-0.979 -0.766,-1.247 -0.194,-0.275 -0.298,-0.421 -0.298,-0.421 0,0 0.087,0.157 0.25,0.451 0.179,0.285 0.382,0.732 0.63,1.303 0.49,1.146 0.965,2.866 1.308,4.965 0.33,2.101 0.475,4.594 0.337,7.238 -0.064,1.312 -0.223,2.7 -0.505,4 -0.292,1.321 -0.911,2.753 -0.734,4.38 0.098,0.817 0.469,1.56 0.846,2.183 0.379,0.606 0.757,1.21 1.132,1.808 0.713,1.178 1.363,2.394 1.845,3.605 0.94,2.457 1.51,4.902 1.927,6.997 0.406,2.1 0.714,3.865 0.888,5.105 C -0.102,-0.709 0,0 0,0"
             style="fill:#000000;fill-opacity:1;fill-rule:nonzero;stroke:none"
             id="path3838"
             inkscape:connector-curvature="0" /></g><g
           id="g3840"
           transform="translate(428.2045,502.4722)"><path
             d="m 0,0 c 0.412,-1.874 0.701,-3.771 0.988,-5.669 0.262,-1.901 0.463,-3.812 0.607,-5.729 0.042,-0.479 0.07,-0.96 0.096,-1.44 0.023,-0.481 0.069,-0.961 0.067,-1.443 0.023,-0.963 0.03,-1.928 0.004,-2.894 -0.02,-0.965 -0.068,-1.933 -0.16,-2.899 -0.077,-0.968 -0.232,-1.933 -0.403,-2.898 l -0.143,0.474 c 1.556,-1.492 3.009,-3.067 4.473,-4.638 0.728,-0.789 1.447,-1.586 2.158,-2.39 0.705,-0.81 1.424,-1.608 2.091,-2.451 1.362,-1.661 2.668,-3.371 3.892,-5.139 0.297,-0.449 0.609,-0.886 0.881,-1.352 l 0.83,-1.384 0.754,-1.426 0.622,-1.486 -0.769,1.408 -0.854,1.352 -0.927,1.303 c -0.3,0.439 -0.652,0.844 -0.969,1.272 -1.294,1.691 -2.668,3.324 -4.097,4.908 -1.423,1.589 -2.84,3.183 -4.319,4.723 -1.464,1.551 -2.986,3.055 -4.481,4.565 l -0.197,0.199 0.053,0.275 c 0.176,0.919 0.34,1.841 0.43,2.783 0.103,0.936 0.165,1.883 0.2,2.83 0.04,0.948 0.048,1.899 0.04,2.85 -0.011,0.951 -0.006,1.904 -0.041,2.857 C 0.78,-9.532 0.647,-7.626 0.506,-5.72 0.381,-3.812 0.193,-1.908 0,0"
             style="fill:#000000;fill-opacity:1;fill-rule:nonzero;stroke:none"
             id="path3842"
             inkscape:connector-curvature="0" /></g><g
           id="g3844"
           transform="translate(442.6037,519.6954)"><path
             d="m 0,0 c 0.095,-0.154 0.243,-0.296 0.279,-0.462 0.998,-4.582 4.075,-7.316 8.201,-8.993 2.721,-1.105 5.539,-1.972 8.318,-2.933 0.588,-0.203 1.194,-0.352 1.847,-0.542 -1.221,1.065 -2.424,2.134 -3.649,3.177 -2.691,2.292 -4.58,5.131 -5.716,8.46 C 7.954,2.595 6.671,6.497 5.392,10.4 4.181,14.098 4.67,17.847 5.144,21.582 c 0.276,2.169 1.065,4.179 2.073,6.118 1.385,2.667 3.549,3.952 6.541,3.889 1.002,-0.021 2.005,-0.003 3.008,-0.015 2.563,-0.03 4.649,0.998 6.486,2.742 1.972,1.873 3.913,3.816 6.09,5.428 3.623,2.684 7.599,2.535 11.051,-0.1 3.026,-2.309 4.196,-6.399 2.834,-9.857 -0.671,-1.704 -1.972,-2.702 -3.63,-3.313 -2.376,-0.876 -4.855,-0.812 -7.333,-0.84 -2.348,-0.026 -4.696,-0.117 -7.039,-0.257 -0.737,-0.044 -1.486,-0.267 -2.181,-0.534 -1.294,-0.497 -1.435,-1.282 -0.437,-2.271 1.357,-1.343 3.038,-1.935 4.92,-2.049 2.683,-0.162 5.212,0.62 7.771,1.226 1.213,0.287 2.435,0.539 3.73,0.824 0.827,-5.274 -0.331,-10.369 -0.111,-15.578 0.645,1.311 1.308,2.614 1.932,3.936 1.804,3.823 3.361,7.779 5.997,11.154 1.621,2.076 3.564,3.712 6.205,4.323 3.241,0.75 5.786,-0.14 7.572,-2.951 1.151,-1.813 1.972,-3.837 2.926,-5.774 0.243,-0.494 0.429,-1.017 0.72,-1.495 0.435,4.816 -0.723,9.019 -4.7,12.097 -1.288,0.997 -2.655,1.89 -3.988,2.828 -2.739,1.926 -4.539,4.628 -6.249,7.429 -1.175,1.924 -2.371,3.858 -3.774,5.615 -2.561,3.203 -5.848,4.083 -9.767,2.839 -2.858,-0.907 -5.306,-2.553 -7.651,-4.357 -2.236,-1.72 -4.455,-3.464 -6.638,-5.251 -1.876,-1.536 -4,-2.432 -6.408,-2.28 -6.621,0.419 -11.313,-3.077 -15.467,-7.573 -1.334,-1.443 -2.791,-2.244 -4.711,-2.356 -2.183,-0.126 -4.001,-1.078 -5.046,-2.98 -1.201,-2.189 -2.129,-4.527 -3.185,-6.795 -1.204,-2.585 -2.355,-5.196 -3.649,-7.735 -0.999,-1.96 -2.565,-3.385 -4.679,-4.146 -2.749,-0.991 -4.102,-3.287 -5.249,-5.733 -1.577,-3.363 -2.085,-7.018 -2.805,-10.615 -0.378,-1.891 -0.817,-3.769 -1.272,-5.849 2.573,2.238 4.661,4.601 5.246,7.927 0.352,1.999 1.222,3.687 2.365,5.352 1.999,2.915 3.778,5.979 5.683,8.959 2.363,3.694 4.79,7.347 7.127,11.057 0.943,1.497 1.72,3.097 2.701,4.607 -1.037,-3.052 -2.074,-6.103 -3.111,-9.154 0.047,-0.028 0.093,-0.055 0.14,-0.083 0.612,0.772 1.212,1.554 1.837,2.315 1.73,2.106 3.457,4.215 5.213,6.3 0.757,0.898 1.93,1.193 2.771,0.786 0.835,-0.404 1.181,-1.385 0.889,-2.626 C -1.33,11.568 -1.051,6.373 -0.104,1.176 -0.032,0.78 -0.023,0.373 0.015,-0.029 L 0,0 Z"
             style="fill:#000000;fill-opacity:1;fill-rule:nonzero;stroke:none"
             id="path3846"
             inkscape:connector-curvature="0" /></g><g
           id="g3848"
           transform="translate(570.7427,565.38)"><path
             d="m 0,0 c -0.785,-0.39 -1.447,-0.699 -2.09,-1.043 -1.221,-0.651 -1.642,-0.588 -2.589,0.457 -0.101,0.111 -0.162,0.257 -0.348,0.562 -0.108,-0.444 -0.155,-0.609 -0.187,-0.776 -0.235,-1.23 -0.205,-1.275 0.991,-1.65 0.841,-0.263 1.68,-0.533 2.515,-0.799 -0.101,-0.912 -0.682,-0.782 -1.231,-0.713 -0.513,0.064 -1.026,0.128 -1.592,0.036 0.639,-0.267 1.26,-0.605 1.923,-0.783 0.985,-0.265 1.62,0.134 1.912,1.118 0.164,0.55 0.246,1.124 0.389,1.68 0.188,0.729 0.573,1.16 1.428,1.157 1.111,-0.003 2.223,0.129 3.334,0.203 0.021,0.079 0.042,0.159 0.063,0.239 -1.713,0.569 -3.411,1.186 -5.143,1.687 -0.74,0.215 -1.548,0.238 -2.328,0.263 -1.216,0.04 -2.197,0.602 -3.149,1.268 -0.643,0.45 -1.274,0.92 -1.937,1.34 -0.96,0.608 -2.016,0.851 -3.153,0.71 -0.545,-0.068 -1.099,-0.224 -1.636,-0.181 -2.008,0.16 -3.203,-0.895 -4.311,-2.435 -1.402,-1.95 -3.031,-3.739 -4.589,-5.574 -0.557,-0.655 -0.987,-1.335 -1.081,-2.213 -0.259,-2.406 -0.541,-4.809 -0.64,-7.244 0.642,1.79 1.272,3.583 1.935,5.365 0.161,0.434 0.388,0.856 0.652,1.237 1.861,2.69 3.826,5.313 5.19,8.315 0.441,0.97 1.225,1.36 2.311,1.456 2.379,0.21 4.265,-0.69 6.001,-2.203 C -6.863,1.046 -6.121,0.894 -5.489,0.617 -4.29,0.09 -3.065,0.231 -1.809,0.38 -1.251,0.446 -0.65,0.148 0,0"
             style="fill:#000000;fill-opacity:1;fill-rule:nonzero;stroke:none"
             id="path3850"
             inkscape:connector-curvature="0" /></g><g
           id="g3852"
           transform="translate(515.606,507.7193)"><path
             d="m 0,0 c 0.279,0.269 0.459,0.43 0.622,0.603 2.585,2.752 5.526,5.144 8.711,7.316 2.118,1.444 4.266,1.76 6.736,0.844 2.173,-0.805 4.437,-1.46 6.825,-0.961 1.049,0.22 2.126,0.556 3.03,1.071 4.063,2.314 7.394,5.368 10.122,8.914 0.849,1.103 1.237,2.532 1.664,3.857 0.42,1.302 0.958,2.448 2.242,3.26 0.539,0.342 0.985,0.867 1.333,1.385 1.135,1.689 2.205,3.412 3.339,5.182 -0.72,0.055 -1.361,0.06 -1.983,0.159 -1.295,0.208 -1.861,0.937 -1.672,2.133 0.261,1.659 0.551,3.314 0.819,4.907 -2.727,-3.81 -3.375,-7.914 -1.393,-12.31 -2.023,0.907 -2.868,3.384 -3.623,9.982 -0.711,-1.303 -1.459,-2.522 -2.051,-3.802 -0.652,-1.408 -0.331,-2.829 0.141,-4.254 0.457,-1.378 1.077,-2.798 1.075,-4.199 -0.006,-3.03 -1.524,-5.479 -4.399,-7.113 -1.501,-0.853 -2.772,-0.322 -3.235,1.249 -0.668,2.264 -0.055,4.408 0.733,6.537 0.14,0.376 0.267,0.755 0.248,1.214 -0.555,-0.702 -1.196,-1.361 -1.646,-2.115 -1.041,-1.742 -1.995,-3.528 -2.973,-5.3 -0.251,-0.456 -0.455,-0.932 -0.695,-1.393 -1.42,-2.735 -3.82,-4.095 -7.135,-4.063 -3.322,0.033 -5.777,1.456 -7.319,4.096 -1.8,3.081 -1.381,6.113 0.471,9.05 0.469,0.744 1.02,1.445 1.51,2.132 C 9.813,27.568 7.121,24.965 6.453,23.405 5.736,21.729 6.036,20.02 6.365,18.318 6.745,16.351 7.008,14.384 6.476,12.402 6.071,10.894 5.22,9.637 3.938,8.616 3.026,7.89 2.097,7.181 1.2,6.44 -0.138,5.335 -0.781,3.992 -0.431,2.324 -0.278,1.597 -0.159,0.864 0,0"
             style="fill:#000000;fill-opacity:1;fill-rule:nonzero;stroke:none"
             id="path3854"
             inkscape:connector-curvature="0" /></g><g
           id="g3856"
           transform="translate(544.5612,543.6285)"><path
             d="m 0,0 c -2.529,-4.441 -5.952,-7.478 -11.62,-8.049 0.539,-0.256 1.048,-0.614 1.621,-0.751 3.759,-0.901 5.884,-0.124 7.616,2.594 C -1.196,-4.343 -0.58,-2.283 0,0"
             style="fill:#000000;fill-opacity:1;fill-rule:nonzero;stroke:none"
             id="path3858"
             inkscape:connector-curvature="0" /></g></g></g></g></svg>